<svg width="24" height="24" viewBox="0 0 24 24" fill="none" xmlns="http://www.w3.org/2000/svg">
<path d="M12.009 1.26907e-08C2.77829 -0.000411339 -2.9908 9.99933 1.6242 17.9995C6.23918 25.9997 17.7775 26.0003 22.3932 18.0005C23.4458 16.1761 24 14.1066 24 12C23.9922 5.37581 18.6282 0.00777743 12.009 1.26907e-08ZM21.1398 17.3435H16.9335L15.7015 15.6471L17.2639 11.0918L19.2624 10.4435L22.547 12.9647C22.4066 14.5104 21.926 16.0057 21.1398 17.3435ZM7.08444 17.3435H2.87818C2.09279 16.0055 1.61303 14.5102 1.47335 12.9647L4.75795 10.4435L6.75645 11.0918L8.31646 15.6471L7.08444 17.3435ZM2.95694 6.52L3.80807 9.39176L1.45689 11.1965C1.58142 9.54108 2.09542 7.93863 2.95694 6.52ZM9.60608 15.0588L8.14717 10.8071L12.009 8.15059L15.8708 10.8071L14.4119 15.0588H9.60608ZM20.2087 9.39176L21.061 6.52C21.9221 7.93874 22.4357 9.54117 22.5599 11.1965L20.2087 9.39176ZM20.0136 5.08353L18.8274 9.1L16.8289 9.75059L12.7143 6.92706V4.84235L16.3469 2.34353C17.7537 2.97923 19.0049 3.91429 20.0136 5.08353ZM14.7034 1.76471L12.009 3.61412L9.31453 1.76471C11.0809 1.30041 12.9371 1.30041 14.7034 1.76471ZM7.67223 2.34235L11.3036 4.84235V6.92236L7.18906 9.74588L5.19057 9.09529L4.00439 5.08353C5.01351 3.914 6.26515 2.97858 7.67223 2.34235ZM3.86803 18.7553H6.94571L8.02608 21.8141C6.40991 21.152 4.98177 20.1014 3.86803 18.7553ZM9.70835 22.3353L8.23299 18.1635L9.46265 16.4706H14.5553L15.785 18.1635L14.3096 22.3353C12.7944 22.6726 11.2236 22.6726 9.70835 22.3353ZM15.9919 21.8082L17.0723 18.7494H20.1499C19.0362 20.0955 17.6081 21.1461 15.9919 21.8082Z" fill="black"/>
</svg>
