<svg width="26" height="26" viewBox="0 0 26 26" fill="none" xmlns="http://www.w3.org/2000/svg">
<path d="M13 25C19.6275 25 25 19.6275 25 13C25 6.37258 19.6275 1 13 1C6.37258 1 1 6.37258 1 13C1 19.6275 6.37258 25 13 25Z" stroke="black" stroke-linecap="round" stroke-linejoin="round"/>
<path d="M9.76929 9.76854C9.76929 9.12955 9.95894 8.50492 10.3143 7.97362C10.6696 7.44233 11.1746 7.02824 11.7655 6.7837C12.3564 6.53917 13.0066 6.47521 13.6339 6.59986C14.2611 6.72451 14.8373 7.03221 15.2896 7.48405C15.7418 7.93588 16.0498 8.51155 16.1746 9.13825C16.2993 9.76496 16.2353 10.4145 15.9905 11.0049C15.7458 11.5952 15.3313 12.0998 14.7995 12.4548C14.2678 12.8098 13.6426 12.9993 13.003 12.9993V15.1531" stroke="black" stroke-linecap="round" stroke-linejoin="round"/>
<path d="M13.0001 19.3849C12.7452 19.3849 12.5386 19.1783 12.5386 18.9234C12.5386 18.6684 12.7452 18.4619 13.0001 18.4619" stroke="black" stroke-linecap="round" stroke-linejoin="round"/>
<path d="M13 19.3849C13.2549 19.3849 13.4615 19.1783 13.4615 18.9234C13.4615 18.6684 13.2549 18.4619 13 18.4619" stroke="black" stroke-linecap="round" stroke-linejoin="round"/>
</svg>
