<svg width="26" height="26" viewBox="0 0 26 26" fill="none" xmlns="http://www.w3.org/2000/svg">
<path d="M1 15.4V20.68C1 21.0776 1.35821 21.4 1.80003 21.4H8.99993" stroke="black" stroke-linecap="round" stroke-linejoin="round"/>
<path d="M21.0003 15.4V20.68C21.0003 21.0776 20.6422 21.4 20.2004 21.4H14.3337" stroke="black" stroke-linecap="round" stroke-linejoin="round"/>
<path d="M14.3337 4.59991H20.2004C20.6422 4.59991 21.0003 4.92231 21.0003 5.31995V10.6" stroke="black" stroke-linecap="round" stroke-linejoin="round"/>
<path d="M1 10.6V5.31995C1 4.92231 1.35821 4.59991 1.80003 4.59991H8.99993" stroke="black" stroke-linecap="round" stroke-linejoin="round"/>
<path d="M14.3334 21.4001V22.6C14.3334 23.9256 13.1395 25 11.6666 25C10.1938 25 9 23.9256 9 22.6V21.4001" stroke="black" stroke-linecap="round" stroke-linejoin="round"/>
<path d="M1 10.6H2.33338C3.80608 10.6 5.00003 11.6744 5.00003 13C5.00003 14.3255 3.80608 15.4 2.33338 15.4H1" stroke="black" stroke-linecap="round" stroke-linejoin="round"/>
<path d="M21 10.6H22.3334C23.8062 10.6 25 11.6744 25 13C25 14.3255 23.8062 15.4 22.3334 15.4H21" stroke="black" stroke-linecap="round" stroke-linejoin="round"/>
<path d="M14.3333 4.59994V3.4C14.3333 2.07445 13.1394 1 11.6666 1C10.1937 1 8.99991 2.07445 8.99991 3.4V4.59994" stroke="black" stroke-linecap="round" stroke-linejoin="round"/>
</svg>
