<svg width="24" height="24" viewBox="0 0 24 24" fill="none" xmlns="http://www.w3.org/2000/svg">
<path d="M20.2502 12.57V12V11.4225L21.6902 10.1625C21.9556 9.92854 22.1298 9.60827 22.182 9.2583C22.2341 8.90833 22.1609 8.55119 21.9752 8.25L20.2052 5.25C20.0737 5.0222 19.8846 4.83298 19.6568 4.70135C19.4291 4.56971 19.1707 4.50027 18.9077 4.5C18.7447 4.49875 18.5826 4.52408 18.4277 4.575L16.6052 5.19C16.2905 4.98091 15.9623 4.79299 15.6227 4.6275L15.2402 2.7375C15.1716 2.3922 14.9838 2.08203 14.7095 1.86128C14.4353 1.64052 14.0922 1.52325 13.7402 1.53H10.2302C9.87821 1.52325 9.53508 1.64052 9.26085 1.86128C8.98662 2.08203 8.79877 2.3922 8.73019 2.7375L8.34769 4.6275C8.00564 4.79295 7.67492 4.98086 7.35769 5.19L5.57269 4.545C5.41616 4.50422 5.25407 4.48902 5.09269 4.5C4.82965 4.50027 4.5713 4.56971 4.34356 4.70135C4.11583 4.83298 3.92671 5.0222 3.79519 5.25L2.02519 8.25C1.85013 8.55074 1.78508 8.90299 1.84118 9.24642C1.89727 9.58985 2.07103 9.90309 2.33269 10.1325L3.75019 11.43V12V12.5775L2.33269 13.8375C2.06364 14.0685 1.88513 14.3873 1.82884 14.7375C1.77255 15.0876 1.84211 15.4463 2.02519 15.75L3.79519 18.75C3.92671 18.9778 4.11583 19.167 4.34356 19.2987C4.5713 19.4303 4.82965 19.4997 5.09269 19.5C5.2557 19.5012 5.41783 19.4759 5.57269 19.425L7.39519 18.81C7.70984 19.0191 8.03807 19.207 8.37769 19.3725L8.76019 21.2625C8.82877 21.6078 9.01662 21.918 9.29085 22.1387C9.56508 22.3595 9.90821 22.4767 10.2602 22.47H13.8002C14.1522 22.4767 14.4953 22.3595 14.7695 22.1387C15.0438 21.918 15.2316 21.6078 15.3002 21.2625L15.6827 19.3725C16.0247 19.2071 16.3555 19.0191 16.6727 18.81L18.4877 19.425C18.6426 19.4759 18.8047 19.5012 18.9677 19.5C19.2307 19.4997 19.4891 19.4303 19.7168 19.2987C19.9446 19.167 20.1337 18.9778 20.2652 18.75L21.9752 15.75C22.1502 15.4493 22.2153 15.097 22.1592 14.7536C22.1031 14.4101 21.9293 14.0969 21.6677 13.8675L20.2502 12.57ZM18.9077 18L16.3352 17.13C15.733 17.6401 15.0447 18.0388 14.3027 18.3075L13.7702 21H10.2302L9.69769 18.3375C8.96151 18.0612 8.27698 17.6631 7.67269 17.16L5.09269 18L3.32269 15L5.36269 13.2C5.22401 12.4236 5.22401 11.6289 5.36269 10.8525L3.32269 9L5.09269 6L7.66519 6.87C8.26739 6.35992 8.95564 5.96119 9.69769 5.6925L10.2302 3H13.7702L14.3027 5.6625C15.0389 5.93882 15.7234 6.33686 16.3277 6.84L18.9077 6L20.6777 9L18.6377 10.8C18.7764 11.5764 18.7764 12.3711 18.6377 13.1475L20.6777 15L18.9077 18Z" fill="black"/>
<path d="M12 16.5C11.11 16.5 10.24 16.2361 9.49994 15.7416C8.75991 15.2471 8.18314 14.5443 7.84254 13.7221C7.50195 12.8998 7.41283 11.995 7.58647 11.1221C7.7601 10.2492 8.18868 9.44736 8.81802 8.81802C9.44736 8.18868 10.2492 7.7601 11.1221 7.58647C11.995 7.41283 12.8998 7.50195 13.7221 7.84254C14.5443 8.18314 15.2471 8.75991 15.7416 9.49994C16.2361 10.24 16.5 11.11 16.5 12C16.506 12.5926 16.3937 13.1805 16.1697 13.7292C15.9457 14.2779 15.6145 14.7763 15.1954 15.1954C14.7763 15.6145 14.2779 15.9457 13.7292 16.1697C13.1805 16.3937 12.5926 16.506 12 16.5ZM12 9C11.6035 8.99077 11.2093 9.06205 10.8411 9.20954C10.473 9.35704 10.1386 9.57768 9.85812 9.85812C9.57768 10.1386 9.35704 10.473 9.20954 10.8411C9.06205 11.2093 8.99077 11.6035 9 12C8.99077 12.3965 9.06205 12.7907 9.20954 13.1589C9.35704 13.527 9.57768 13.8615 9.85812 14.1419C10.1386 14.4223 10.473 14.643 10.8411 14.7905C11.2093 14.938 11.6035 15.0092 12 15C12.3965 15.0092 12.7907 14.938 13.1589 14.7905C13.527 14.643 13.8615 14.4223 14.1419 14.1419C14.4223 13.8615 14.643 13.527 14.7905 13.1589C14.938 12.7907 15.0092 12.3965 15 12C15.0092 11.6035 14.938 11.2093 14.7905 10.8411C14.643 10.473 14.4223 10.1386 14.1419 9.85812C13.8615 9.57768 13.527 9.35704 13.1589 9.20954C12.7907 9.06205 12.3965 8.99077 12 9Z" fill="black"/>
</svg>
