<svg width="23" height="23" viewBox="0 0 23 23" fill="none" xmlns="http://www.w3.org/2000/svg">
<path d="M11.4914 0C20.3375 0 25.8663 9.58333 21.4433 17.25C17.0202 24.9167 5.96262 24.9167 1.53956 17.25C0.530975 15.5018 0 13.5187 0 11.5C0.0066967 5.1515 5.14766 0.00671078 11.4914 0ZM10.6075 4.35452L7.86831 2.46918C6.30003 3.1014 4.92256 4.13013 3.87063 5.45476L4.75458 8.4337C4.77668 8.4337 4.79988 8.44476 4.82199 8.4525L7.34347 9.27187C7.38129 9.28398 7.41822 9.29876 7.45396 9.31611L10.6075 7.14548V4.35452ZM15.1112 2.46918L12.3754 4.35452V7.14548L15.5311 9.32053C15.5668 9.30318 15.6038 9.2884 15.6416 9.2763L18.1631 8.45693C18.1852 8.44918 18.2084 8.44365 18.2305 8.43812L19.1144 5.45918C18.0615 4.13216 16.682 3.10181 15.1112 2.46918ZM16.5477 16.7436H19.6791C20.5957 15.3173 21.1212 13.6748 21.2028 11.981L18.7719 10.1145C18.751 10.1237 18.7296 10.1318 18.7078 10.1388L16.1852 10.9593C16.1515 10.9695 16.1172 10.9776 16.0825 10.9836L14.8902 14.4579C14.9068 14.4778 14.9234 14.4977 14.9389 14.5187L16.4968 16.665C16.5152 16.6903 16.5321 16.7165 16.5477 16.7436ZM8.98431 20.899C10.6271 21.3369 12.3558 21.3369 13.9985 20.899L15.1101 17.7586C15.0958 17.741 15.0803 17.7244 15.067 17.7056L13.508 15.5582C13.4896 15.5333 13.4726 15.5075 13.4571 15.4808H9.52573C9.51021 15.5075 9.49324 15.5333 9.4749 15.5582L7.91583 17.7056C7.90257 17.7244 7.8871 17.741 7.87274 17.7586L8.98431 20.899ZM6.4352 16.7402C6.45071 16.7132 6.46768 16.687 6.48602 16.6617L8.04511 14.5187C8.06057 14.4977 8.07714 14.4778 8.09373 14.4579L6.90149 10.9836C6.86677 10.9776 6.83245 10.9695 6.79873 10.9593L4.27614 10.1388C4.25436 10.1318 4.23297 10.1237 4.21205 10.1145L1.78117 11.981C1.86277 13.6748 2.38826 15.3173 3.3049 16.7436L6.4352 16.7402Z" fill="#F8FF13"/>
</svg>
