<svg width="284" height="442" viewBox="0 0 284 442" fill="none" xmlns="http://www.w3.org/2000/svg">
<rect x="1.23184" y="439.768" width="438.536" height="280.86" rx="1.23184" transform="rotate(-90 1.23184 439.768)" stroke="#DFE3E2" stroke-width="2.46369"/>
<path d="M1.23187 220.5L282.092 220.5" stroke="#DFE3E2" stroke-width="2.46369" stroke-linecap="square"/>
<path d="M73.9108 441V383.103C73.9108 382.423 74.4623 381.872 75.1426 381.872H208.182C208.862 381.872 209.414 382.423 209.414 383.103V441" stroke="#DFE3E2" stroke-width="2.46369"/>
<path d="M98.5476 441V407.74C98.5476 407.06 99.0991 406.508 99.7795 406.508H183.545C184.225 406.508 184.777 407.06 184.777 407.74V441" stroke="#DFE3E2" stroke-width="2.46369"/>
<path d="M98.5476 3.69554V36.9496C98.5476 37.6321 99.1026 38.1846 99.7852 38.1814L183.551 37.7918C184.229 37.7886 184.777 37.2381 184.777 36.56V4.29152" stroke="#DFE3E2" stroke-width="2.46369" stroke-linecap="square"/>
<path d="M73.9108 3.69551V61.5859C73.9108 62.2687 74.4661 62.8212 75.1489 62.8177L208.188 62.1427C208.866 62.1392 209.414 61.5887 209.414 60.9109V4.7172" stroke="#DFE3E2" stroke-width="2.46369" stroke-linecap="square"/>
<circle cx="141.662" cy="220.5" r="60.3603" transform="rotate(-90 141.662 220.5)" stroke="#DFE3E2" stroke-width="2.46369"/>
<circle cx="141.662" cy="220.5" r="6.15922" transform="rotate(-90 141.662 220.5)" fill="#D8D8D8"/>
<path d="M19.6396 441C19.6396 441 20.2949 432.265 14.8066 426.757C9.31822 421.249 0 421.291 0 421.291" stroke="#DFE3E2" stroke-width="2.46369"/>
<path d="M19.6396 2.46341C19.6396 2.46341 20.2949 11.1982 14.8066 16.7061C9.31822 22.2139 0 22.1729 0 22.1729" stroke="#DFE3E2" stroke-width="2.46369"/>
<path d="M262.453 2.46341C262.453 2.46341 261.797 11.1982 267.286 16.7061C272.774 22.2139 282.092 22.1729 282.092 22.1729" stroke="#DFE3E2" stroke-width="2.46369"/>
<path d="M263.684 441C263.684 441 263.029 432.265 268.517 426.757C274.006 421.249 283.324 421.291 283.324 421.291" stroke="#DFE3E2" stroke-width="2.46369"/>
<g clip-path="url(#clip0_1_189)">
<rect x="23.4052" y="339.989" width="29.5642" height="29.5642" rx="14.7821" transform="rotate(-90 23.4052 339.989)" fill="white"/>
<path d="M30.23 322.562C30.23 321.605 30.5572 320.823 31.2116 320.217C31.866 319.605 32.7057 319.3 33.7306 319.3C34.7219 319.3 35.5423 319.581 36.1919 320.144C36.8415 320.707 37.1663 321.417 37.1663 322.274C37.1663 322.827 37.0027 323.376 36.6755 323.919C36.3531 324.458 35.7564 325.168 34.8855 326.049L32.5685 328.394V328.517H37.3323V329.968H30.3166V328.799L33.8389 325.132C34.5318 324.41 34.9937 323.866 35.2247 323.501C35.4557 323.13 35.5712 322.752 35.5712 322.367C35.5712 321.891 35.3907 321.494 35.0298 321.177C34.6689 320.859 34.219 320.7 33.6801 320.7C33.1075 320.7 32.6431 320.871 32.2871 321.213C31.9358 321.554 31.7602 322.004 31.7602 322.562V322.584H30.23V322.562ZM43.1836 329.968V321.292H43.0609L40.448 323.14V321.487L43.1908 319.553H44.8004V329.968H43.1836Z" fill="black"/>
</g>
<g clip-path="url(#clip1_1_189)">
<rect x="59.1285" y="385.567" width="29.5642" height="29.5642" rx="14.7821" transform="rotate(-90 59.1285 385.567)" fill="white"/>
<path d="M66.9054 370.869V369.534H68.1685C68.7267 369.534 69.1814 369.38 69.5327 369.072C69.884 368.764 70.0596 368.364 70.0596 367.873C70.0596 367.387 69.8888 367 69.5471 366.711C69.2055 366.418 68.7508 366.271 68.183 366.271C67.6151 366.271 67.1556 366.418 66.8043 366.711C66.4579 367.005 66.263 367.409 66.2197 367.924H64.6823C64.7352 366.981 65.0793 366.237 65.7145 365.694C66.3496 365.15 67.1893 364.878 68.2335 364.878C69.2007 364.878 70.0115 365.143 70.6659 365.672C71.3251 366.197 71.6547 366.851 71.6547 367.635C71.6547 368.246 71.4863 368.769 71.1495 369.202C70.8175 369.635 70.3651 369.916 69.7925 370.046V370.169C70.4999 370.251 71.0581 370.52 71.4671 370.977C71.8761 371.429 72.0806 372.005 72.0806 372.702C72.0806 373.284 71.9146 373.811 71.5826 374.283C71.2505 374.754 70.791 375.125 70.2039 375.394C69.6217 375.664 68.9745 375.799 68.2623 375.799C67.17 375.799 66.2774 375.517 65.5845 374.954C64.8964 374.391 64.5283 373.645 64.4802 372.717H66.032C66.085 373.222 66.3111 373.624 66.7105 373.922C67.1147 374.22 67.632 374.37 68.2623 374.37C68.8975 374.37 69.4172 374.206 69.8214 373.879C70.2256 373.552 70.4277 373.13 70.4277 372.616C70.4277 372.077 70.2304 371.651 69.8358 371.338C69.4413 371.025 68.9023 370.869 68.219 370.869H66.9054ZM75.2757 368.141C75.2757 367.183 75.6029 366.401 76.2573 365.795C76.9117 365.184 77.7514 364.878 78.7763 364.878C79.7676 364.878 80.588 365.16 81.2376 365.723C81.8872 366.286 82.212 366.995 82.212 367.852C82.212 368.405 82.0484 368.954 81.7212 369.498C81.3988 370.036 80.8021 370.746 79.9312 371.627L77.6143 373.973V374.095H82.378V375.546H75.3623V374.377L78.8846 370.71C79.5775 369.988 80.0394 369.445 80.2704 369.079C80.5014 368.708 80.6169 368.331 80.6169 367.946C80.6169 367.469 80.4364 367.072 80.0755 366.755C79.7146 366.437 79.2647 366.278 78.7258 366.278C78.1532 366.278 77.6888 366.449 77.3328 366.791C76.9815 367.132 76.8059 367.582 76.8059 368.141V368.162H75.2757V368.141Z" fill="black"/>
</g>
<g clip-path="url(#clip2_1_189)">
<rect x="73.9108" y="295.642" width="29.5642" height="29.5642" rx="14.7821" transform="rotate(-90 73.9108 295.642)" fill="white"/>
<path d="M83.6954 286.853V278.178H83.5727L80.9599 280.025V278.372L83.7027 276.438H85.3122V286.853H83.6954ZM90.0159 286.853L94.6064 277.99V277.874H89.1497V276.438H96.2448V277.903L91.712 286.853H90.0159Z" fill="black"/>
</g>
<g clip-path="url(#clip3_1_189)">
<rect x="92.3884" y="339.989" width="29.5642" height="29.5642" rx="14.7821" transform="rotate(-90 92.3884 339.989)" fill="white"/>
<path d="M101.797 329.968V321.292H101.675L99.0617 323.14V321.487L101.805 319.553H103.414V329.968H101.797ZM107.591 322.562C107.591 321.605 107.918 320.823 108.572 320.217C109.227 319.605 110.067 319.3 111.091 319.3C112.083 319.3 112.903 319.581 113.553 320.144C114.202 320.707 114.527 321.417 114.527 322.274C114.527 322.827 114.364 323.376 114.036 323.919C113.714 324.458 113.117 325.168 112.246 326.049L109.929 328.394V328.517H114.693V329.968H107.677V328.799L111.2 325.132C111.893 324.41 112.355 323.866 112.586 323.501C112.817 323.13 112.932 322.752 112.932 322.367C112.932 321.891 112.752 321.494 112.391 321.177C112.03 320.859 111.58 320.7 111.041 320.7C110.468 320.7 110.004 320.871 109.648 321.213C109.297 321.554 109.121 322.004 109.121 322.562V322.584H107.591V322.562Z" fill="black"/>
</g>
<g clip-path="url(#clip4_1_189)">
<rect x="126.88" y="385.567" width="29.5642" height="29.5642" rx="14.7821" transform="rotate(-90 126.88 385.567)" fill="white"/>
<path d="M141.872 377.031C141.102 377.031 140.424 376.845 139.837 376.475C139.254 376.104 138.792 375.57 138.451 374.872C138.027 374.04 137.816 372.984 137.816 371.704C137.816 369.938 138.176 368.564 138.898 367.582C139.625 366.601 140.64 366.11 141.944 366.11C142.863 366.11 143.645 366.365 144.29 366.875C144.935 367.38 145.337 368.059 145.495 368.911H143.871C143.741 368.487 143.503 368.153 143.157 367.907C142.81 367.662 142.401 367.539 141.93 367.539C141.131 367.539 140.508 367.886 140.06 368.578C139.618 369.267 139.387 370.239 139.367 371.494H139.49C139.74 370.994 140.104 370.607 140.58 370.332C141.061 370.058 141.61 369.921 142.226 369.921C143.217 369.921 144.035 370.248 144.68 370.903C145.324 371.557 145.647 372.387 145.647 373.393C145.647 374.456 145.293 375.33 144.586 376.013C143.878 376.691 142.974 377.031 141.872 377.031ZM140.298 374.981C140.717 375.399 141.237 375.609 141.858 375.609C142.478 375.609 142.998 375.402 143.417 374.988C143.835 374.574 144.045 374.059 144.045 373.443C144.045 372.813 143.84 372.296 143.431 371.891C143.027 371.487 142.505 371.285 141.865 371.285C141.23 371.285 140.705 371.487 140.291 371.891C139.877 372.291 139.671 372.799 139.671 373.414C139.671 374.035 139.88 374.557 140.298 374.981Z" fill="black"/>
</g>
<g clip-path="url(#clip5_1_189)">
<rect x="126.88" y="421.29" width="29.5642" height="29.5642" rx="14.7821" transform="rotate(-90 126.88 421.29)" fill="white"/>
<path d="M142.017 412.501V403.826H141.894L139.282 405.673V404.02L142.024 402.086H143.634V412.501H142.017Z" fill="black"/>
</g>
<g clip-path="url(#clip6_1_189)">
<rect x="126.88" y="263.615" width="29.5642" height="29.5642" rx="14.7821" transform="rotate(-90 126.88 263.615)" fill="white"/>
<path d="M141.525 255.078C140.602 255.078 139.817 254.823 139.172 254.313C138.528 253.803 138.126 253.122 137.967 252.27H139.598C139.723 252.694 139.959 253.028 140.306 253.274C140.652 253.519 141.064 253.642 141.54 253.642C142.339 253.642 142.959 253.298 143.402 252.61C143.85 251.917 144.081 250.942 144.095 249.686H144.037H144.001H143.972C143.722 250.187 143.359 250.577 142.882 250.856C142.406 251.13 141.86 251.267 141.244 251.267C140.253 251.267 139.432 250.94 138.783 250.285C138.138 249.631 137.816 248.801 137.816 247.795C137.816 246.732 138.167 245.861 138.869 245.182C139.577 244.499 140.484 244.157 141.59 244.157C142.36 244.157 143.039 244.343 143.626 244.713C144.213 245.079 144.675 245.611 145.012 246.308C145.44 247.15 145.654 248.207 145.654 249.477C145.654 251.243 145.291 252.619 144.564 253.606C143.842 254.587 142.83 255.078 141.525 255.078ZM141.598 249.896C142.233 249.896 142.757 249.696 143.171 249.297C143.585 248.897 143.792 248.39 143.792 247.774C143.792 247.148 143.583 246.626 143.164 246.207C142.745 245.789 142.228 245.579 141.612 245.579C140.991 245.579 140.472 245.786 140.053 246.2C139.634 246.614 139.425 247.126 139.425 247.737C139.425 248.368 139.627 248.885 140.031 249.289C140.436 249.694 140.958 249.896 141.598 249.896Z" fill="black"/>
</g>
<g clip-path="url(#clip7_1_189)">
<rect x="161.372" y="339.989" width="29.5642" height="29.5642" rx="14.7821" transform="rotate(-90 161.372 339.989)" fill="white"/>
<path d="M176.27 331.452C175.235 331.452 174.383 331.164 173.715 330.586C173.046 330.009 172.687 329.263 172.639 328.349H174.176C174.239 328.854 174.463 329.261 174.848 329.569C175.233 329.876 175.711 330.03 176.284 330.03C176.934 330.03 177.458 329.833 177.858 329.439C178.257 329.044 178.457 328.522 178.457 327.872C178.457 327.223 178.257 326.696 177.858 326.292C177.458 325.883 176.941 325.678 176.306 325.678C175.863 325.678 175.466 325.772 175.115 325.96C174.764 326.147 174.487 326.41 174.285 326.746H172.805L173.354 320.784H179.431V322.228H174.617L174.342 325.281H174.465C174.956 324.651 175.69 324.336 176.667 324.336C177.658 324.336 178.466 324.663 179.092 325.317C179.722 325.967 180.037 326.804 180.037 327.829C180.037 328.907 179.688 329.78 178.991 330.449C178.298 331.118 177.391 331.452 176.27 331.452Z" fill="black"/>
</g>
<g clip-path="url(#clip8_1_189)">
<rect x="194.631" y="385.567" width="29.5642" height="29.5642" rx="14.7821" transform="rotate(-90 194.631 385.567)" fill="white"/>
<path d="M204.23 375.546V366.87H204.107L201.494 368.718V367.065L204.237 365.131H205.847V375.546H204.23ZM214.903 375.546V373.532H209.821V372.031C210.63 370.554 212.076 368.254 214.159 365.131H216.462V372.089H217.898V373.532H216.462V375.546H214.903ZM211.373 372.024V372.125H214.924V366.553H214.83C213.608 368.323 212.456 370.147 211.373 372.024Z" fill="black"/>
</g>
<g clip-path="url(#clip9_1_189)">
<rect x="179.849" y="295.642" width="29.5642" height="29.5642" rx="14.7821" transform="rotate(-90 179.849 295.642)" fill="white"/>
<path d="M189.491 285.622V276.946H189.369L186.756 278.793V277.141L189.499 275.206H191.108V285.622H189.491ZM198.872 285.874C197.948 285.874 197.164 285.619 196.519 285.109C195.874 284.599 195.472 283.918 195.314 283.066H196.945C197.07 283.49 197.306 283.824 197.652 284.07C197.999 284.315 198.41 284.438 198.887 284.438C199.685 284.438 200.306 284.094 200.749 283.406C201.196 282.713 201.427 281.738 201.442 280.482H201.384H201.348H201.319C201.069 280.983 200.705 281.373 200.229 281.652C199.753 281.926 199.206 282.063 198.591 282.063C197.599 282.063 196.779 281.736 196.129 281.082C195.485 280.427 195.162 279.597 195.162 278.591C195.162 277.528 195.513 276.657 196.216 275.979C196.923 275.295 197.83 274.954 198.937 274.954C199.707 274.954 200.385 275.139 200.972 275.509C201.56 275.875 202.021 276.407 202.358 277.105C202.787 277.947 203.001 279.003 203.001 280.273C203.001 282.039 202.637 283.415 201.911 284.402C201.189 285.383 200.176 285.874 198.872 285.874ZM198.944 280.692C199.579 280.692 200.104 280.492 200.518 280.093C200.932 279.693 201.138 279.186 201.138 278.57C201.138 277.944 200.929 277.422 200.511 277.003C200.092 276.585 199.575 276.376 198.959 276.376C198.338 276.376 197.818 276.582 197.4 276.996C196.981 277.41 196.772 277.923 196.772 278.534C196.772 279.164 196.974 279.681 197.378 280.085C197.782 280.49 198.304 280.692 198.944 280.692Z" fill="black"/>
</g>
<g clip-path="url(#clip10_1_189)">
<rect x="230.355" y="339.989" width="29.5642" height="29.5642" rx="14.7821" transform="rotate(-90 230.355 339.989)" fill="white"/>
<path d="M236.149 322.562C236.149 321.605 236.476 320.823 237.13 320.217C237.785 319.605 238.624 319.3 239.649 319.3C240.641 319.3 241.461 319.581 242.111 320.144C242.76 320.707 243.085 321.417 243.085 322.274C243.085 322.827 242.922 323.376 242.594 323.919C242.272 324.458 241.675 325.168 240.804 326.049L238.487 328.394V328.517H243.251V329.968H236.235V328.799L239.758 325.132C240.451 324.41 240.913 323.866 241.144 323.501C241.374 323.13 241.49 322.752 241.49 322.367C241.49 321.891 241.31 321.494 240.949 321.177C240.588 320.859 240.138 320.7 239.599 320.7C239.026 320.7 238.562 320.871 238.206 321.213C237.855 321.554 237.679 322.004 237.679 322.562V322.584H236.149V322.562ZM253.173 329.376C252.447 329.939 251.504 330.22 250.344 330.22C249.184 330.22 248.241 329.939 247.514 329.376C246.793 328.813 246.432 328.082 246.432 327.182C246.432 326.518 246.631 325.943 247.031 325.457C247.435 324.971 247.972 324.66 248.64 324.526V324.403C248.097 324.263 247.661 323.987 247.334 323.573C247.012 323.154 246.85 322.666 246.85 322.108C246.85 321.285 247.178 320.611 247.832 320.087C248.486 319.562 249.324 319.3 250.344 319.3C251.364 319.3 252.201 319.562 252.856 320.087C253.51 320.611 253.837 321.285 253.837 322.108C253.837 322.671 253.676 323.159 253.354 323.573C253.031 323.987 252.596 324.263 252.047 324.403V324.526C252.716 324.651 253.253 324.956 253.657 325.442C254.061 325.923 254.263 326.501 254.263 327.175C254.263 328.074 253.9 328.808 253.173 329.376ZM248.713 328.373C249.131 328.71 249.675 328.878 250.344 328.878C251.013 328.878 251.556 328.71 251.975 328.373C252.394 328.031 252.603 327.588 252.603 327.045C252.603 326.501 252.394 326.058 251.975 325.717C251.556 325.375 251.013 325.204 250.344 325.204C249.675 325.204 249.131 325.375 248.713 325.717C248.294 326.058 248.085 326.501 248.085 327.045C248.085 327.588 248.294 328.031 248.713 328.373ZM248.965 323.436C249.317 323.734 249.776 323.883 250.344 323.883C250.912 323.883 251.371 323.734 251.722 323.436C252.074 323.137 252.249 322.748 252.249 322.266C252.249 321.78 252.074 321.386 251.722 321.083C251.371 320.78 250.912 320.628 250.344 320.628C249.776 320.628 249.317 320.78 248.965 321.083C248.619 321.386 248.446 321.78 248.446 322.266C248.446 322.748 248.619 323.137 248.965 323.436Z" fill="black"/>
</g>
<g clip-path="url(#clip11_1_189)">
<rect x="19.7095" y="89.9246" width="29.5642" height="29.5642" rx="14.7821" transform="rotate(-90 19.7095 89.9246)" fill="#F8FF13"/>
<path d="M25.0758 72.4982C25.0758 71.5406 25.403 70.7587 26.0574 70.1524C26.7118 69.5413 27.5515 69.2357 28.5764 69.2357C29.5677 69.2357 30.3881 69.5172 31.0377 70.0802C31.6873 70.6432 32.0121 71.3529 32.0121 72.2094C32.0121 72.7628 31.8485 73.3114 31.5213 73.8551C31.1989 74.394 30.6022 75.1038 29.7313 75.9844L27.4143 78.3302V78.4529H32.1781V79.9037H25.1624V78.7344L28.6847 75.0677C29.3776 74.3459 29.8395 73.8022 30.0705 73.4365C30.3015 73.066 30.417 72.6882 30.417 72.3033C30.417 71.8269 30.2365 71.4299 29.8756 71.1123C29.5147 70.7947 29.0648 70.636 28.5259 70.636C27.9533 70.636 27.4889 70.8068 27.1328 71.1484C26.7816 71.4901 26.6059 71.94 26.6059 72.4982V72.5198H25.0758V72.4982ZM39.2131 80.1563C37.9957 80.1563 37.0477 79.6775 36.3693 78.7199C35.6956 77.7624 35.3588 76.4174 35.3588 74.6852C35.3588 72.9673 35.698 71.6296 36.3765 70.672C37.055 69.7145 38.0005 69.2357 39.2131 69.2357C40.4161 69.2357 41.3568 69.7169 42.0353 70.6793C42.7137 71.6368 43.053 72.9769 43.053 74.6996C43.053 76.4271 42.7161 77.7696 42.0425 78.7271C41.3688 79.6799 40.4257 80.1563 39.2131 80.1563ZM37.5674 77.695C37.9524 78.3927 38.5009 78.7416 39.2131 78.7416C39.9252 78.7416 40.4714 78.3951 40.8515 77.7022C41.2317 77.0045 41.4217 75.9988 41.4217 74.6852C41.4217 73.386 41.2293 72.3899 40.8443 71.697C40.4594 70.9993 39.9156 70.6504 39.2131 70.6504C38.5106 70.6504 37.9644 70.9993 37.5746 71.697C37.1849 72.3947 36.99 73.3908 36.99 74.6852C36.99 75.994 37.1825 76.9973 37.5674 77.695Z" fill="black"/>
</g>
<g clip-path="url(#clip12_1_189)">
<rect x="19.7095" y="166.299" width="29.5642" height="29.5642" rx="14.7821" transform="rotate(-90 19.7095 166.299)" fill="#F8FF13"/>
<path d="M27.4865 151.601V150.266H28.7496C29.3078 150.266 29.7625 150.112 30.1138 149.804C30.4651 149.496 30.6407 149.096 30.6407 148.605C30.6407 148.119 30.4699 147.732 30.1282 147.443C29.7866 147.15 29.3319 147.003 28.7641 147.003C28.1963 147.003 27.7367 147.15 27.3855 147.443C27.039 147.737 26.8441 148.141 26.8008 148.656H25.2634C25.3163 147.713 25.6604 146.969 26.2956 146.426C26.9307 145.882 27.7704 145.61 28.8146 145.61C29.7818 145.61 30.5926 145.875 31.247 146.404C31.9062 146.928 32.2358 147.583 32.2358 148.367C32.2358 148.978 32.0674 149.5 31.7306 149.934C31.3986 150.367 30.9463 150.648 30.3736 150.778V150.901C31.081 150.983 31.6392 151.252 32.0482 151.709C32.4572 152.161 32.6617 152.736 32.6617 153.434C32.6617 154.016 32.4957 154.543 32.1637 155.015C31.8316 155.486 31.3721 155.857 30.7851 156.126C30.2028 156.396 29.5556 156.531 28.8435 156.531C27.7512 156.531 26.8586 156.249 26.1656 155.686C25.4775 155.123 25.1094 154.377 25.0613 153.449H26.6132C26.6661 153.954 26.8922 154.356 27.2916 154.654C27.6958 154.952 28.2131 155.101 28.8435 155.101C29.4786 155.101 29.9983 154.938 30.4025 154.611C30.8067 154.283 31.0088 153.862 31.0088 153.348C31.0088 152.809 30.8115 152.383 30.417 152.07C30.0224 151.757 29.4834 151.601 28.8002 151.601H27.4865ZM35.8568 148.872C35.8568 147.915 36.184 147.133 36.8384 146.527C37.4928 145.916 38.3325 145.61 39.3574 145.61C40.3487 145.61 41.1691 145.892 41.8187 146.455C42.4683 147.018 42.7931 147.727 42.7931 148.584C42.7931 149.137 42.6295 149.686 42.3023 150.229C41.9799 150.768 41.3832 151.478 40.5123 152.359L38.1954 154.704V154.827H42.9591V156.278H35.9434V155.109L39.4657 151.442C40.1586 150.72 40.6206 150.177 40.8515 149.811C41.0825 149.44 41.198 149.063 41.198 148.678C41.198 148.201 41.0175 147.804 40.6567 147.487C40.2958 147.169 39.8458 147.01 39.3069 147.01C38.7343 147.01 38.27 147.181 37.9139 147.523C37.5626 147.864 37.387 148.314 37.387 148.872V148.894H35.8568V148.872Z" fill="black"/>
</g>
<g clip-path="url(#clip13_1_189)">
<rect x="91.1565" y="89.9246" width="29.5642" height="29.5642" rx="14.7821" transform="rotate(-90 91.1565 89.9246)" fill="#F8FF13"/>
<path d="M100.799 79.9037V71.2278H100.676L98.063 73.0756V71.4227L100.806 69.4883H102.415V79.9037H100.799ZM110.179 80.1563C109.255 80.1563 108.471 79.9013 107.826 79.3912C107.182 78.8811 106.78 78.2002 106.621 77.3485H108.252C108.377 77.772 108.613 78.1064 108.96 78.3518C109.306 78.5972 109.717 78.7199 110.194 78.7199C110.993 78.7199 111.613 78.3759 112.056 77.6878C112.503 76.9949 112.734 76.0205 112.749 74.7646H112.691H112.655H112.626C112.376 75.265 112.013 75.6548 111.536 75.9338C111.06 76.2081 110.514 76.3453 109.898 76.3453C108.907 76.3453 108.086 76.0181 107.437 75.3636C106.792 74.7092 106.469 73.8792 106.469 72.8735C106.469 71.8101 106.821 70.9391 107.523 70.2606C108.231 69.5773 109.138 69.2357 110.244 69.2357C111.014 69.2357 111.693 69.421 112.28 69.7915C112.867 70.1572 113.329 70.6889 113.666 71.3866C114.094 72.2287 114.308 73.2849 114.308 74.5552C114.308 76.3212 113.945 77.6974 113.218 78.6838C112.496 79.6655 111.483 80.1563 110.179 80.1563ZM110.252 74.9739C110.887 74.9739 111.411 74.7742 111.825 74.3748C112.239 73.9754 112.446 73.4678 112.446 72.8518C112.446 72.2263 112.236 71.7042 111.818 71.2856C111.399 70.8669 110.882 70.6576 110.266 70.6576C109.645 70.6576 109.126 70.8645 108.707 71.2783C108.288 71.6922 108.079 72.2046 108.079 72.8157C108.079 73.4461 108.281 73.9634 108.685 74.3676C109.089 74.7718 109.612 74.9739 110.252 74.9739Z" fill="black"/>
</g>
<g clip-path="url(#clip14_1_189)">
<rect x="126.88" y="128.112" width="29.5642" height="29.5642" rx="14.7821" transform="rotate(-90 126.88 128.112)" fill="#F8FF13"/>
<path d="M136.486 118.091V109.415H136.363L133.75 111.263V109.61L136.493 107.675H138.103V118.091H136.486ZM148.934 117.499C148.208 118.062 147.264 118.343 146.105 118.343C144.945 118.343 144.002 118.062 143.275 117.499C142.554 116.936 142.193 116.205 142.193 115.305C142.193 114.641 142.392 114.066 142.792 113.58C143.196 113.094 143.733 112.783 144.401 112.649V112.526C143.858 112.386 143.422 112.11 143.095 111.696C142.773 111.277 142.611 110.789 142.611 110.231C142.611 109.408 142.939 108.734 143.593 108.21C144.247 107.685 145.085 107.423 146.105 107.423C147.125 107.423 147.962 107.685 148.617 108.21C149.271 108.734 149.598 109.408 149.598 110.231C149.598 110.794 149.437 111.282 149.115 111.696C148.792 112.11 148.357 112.386 147.808 112.526V112.649C148.477 112.774 149.014 113.079 149.418 113.565C149.822 114.046 150.024 114.624 150.024 115.297C150.024 116.197 149.661 116.931 148.934 117.499ZM144.474 116.496C144.892 116.832 145.436 117.001 146.105 117.001C146.774 117.001 147.317 116.832 147.736 116.496C148.155 116.154 148.364 115.711 148.364 115.168C148.364 114.624 148.155 114.181 147.736 113.839C147.317 113.498 146.774 113.327 146.105 113.327C145.436 113.327 144.892 113.498 144.474 113.839C144.055 114.181 143.846 114.624 143.846 115.168C143.846 115.711 144.055 116.154 144.474 116.496ZM144.726 111.559C145.077 111.857 145.537 112.006 146.105 112.006C146.673 112.006 147.132 111.857 147.483 111.559C147.835 111.26 148.01 110.871 148.01 110.389C148.01 109.903 147.835 109.509 147.483 109.206C147.132 108.902 146.673 108.751 146.105 108.751C145.537 108.751 145.077 108.902 144.726 109.206C144.38 109.509 144.207 109.903 144.207 110.389C144.207 110.871 144.38 111.26 144.726 111.559Z" fill="black"/>
</g>
<g clip-path="url(#clip15_1_189)">
<rect x="91.1565" y="166.299" width="29.5642" height="29.5642" rx="14.7821" transform="rotate(-90 91.1565 166.299)" fill="#F8FF13"/>
<path d="M106.148 157.762C105.378 157.762 104.7 157.577 104.113 157.207C103.531 156.836 103.069 156.302 102.727 155.604C102.304 154.772 102.092 153.716 102.092 152.436C102.092 150.67 102.453 149.296 103.175 148.314C103.901 147.333 104.916 146.842 106.22 146.842C107.14 146.842 107.921 147.097 108.566 147.607C109.211 148.112 109.613 148.791 109.772 149.642H108.148C108.018 149.219 107.78 148.884 107.433 148.639C107.087 148.394 106.678 148.271 106.206 148.271C105.407 148.271 104.784 148.617 104.337 149.31C103.894 149.998 103.663 150.97 103.644 152.226H103.766C104.017 151.726 104.38 151.339 104.856 151.064C105.338 150.79 105.886 150.653 106.502 150.653C107.493 150.653 108.311 150.98 108.956 151.634C109.601 152.289 109.923 153.119 109.923 154.125C109.923 155.188 109.57 156.061 108.862 156.745C108.155 157.423 107.25 157.762 106.148 157.762ZM104.575 155.713C104.993 156.131 105.513 156.341 106.134 156.341C106.755 156.341 107.274 156.134 107.693 155.72C108.112 155.306 108.321 154.791 108.321 154.175C108.321 153.545 108.116 153.028 107.707 152.623C107.303 152.219 106.781 152.017 106.141 152.017C105.506 152.017 104.981 152.219 104.568 152.623C104.154 153.023 103.947 153.53 103.947 154.146C103.947 154.767 104.156 155.289 104.575 155.713Z" fill="black"/>
</g>
<g clip-path="url(#clip16_1_189)">
<rect x="126.88" y="206.95" width="29.5642" height="29.5642" rx="14.7821" transform="rotate(-90 126.88 206.95)" fill="#F8FF13"/>
<path d="M136.058 196.929V188.253H135.935L133.322 190.101V188.448L136.065 186.513H137.675V196.929H136.058ZM145.619 197.181C144.402 197.181 143.454 196.703 142.775 195.745C142.102 194.787 141.765 193.443 141.765 191.71C141.765 189.992 142.104 188.655 142.783 187.697C143.461 186.74 144.407 186.261 145.619 186.261C146.822 186.261 147.763 186.742 148.441 187.704C149.12 188.662 149.459 190.002 149.459 191.725C149.459 193.452 149.122 194.795 148.449 195.752C147.775 196.705 146.832 197.181 145.619 197.181ZM143.974 194.72C144.359 195.418 144.907 195.767 145.619 195.767C146.331 195.767 146.878 195.42 147.258 194.727C147.638 194.03 147.828 193.024 147.828 191.71C147.828 190.411 147.635 189.415 147.25 188.722C146.866 188.024 146.322 187.675 145.619 187.675C144.917 187.675 144.371 188.024 143.981 188.722C143.591 189.42 143.396 190.416 143.396 191.71C143.396 193.019 143.589 194.022 143.974 194.72Z" fill="black"/>
</g>
<g clip-path="url(#clip17_1_189)">
<rect x="126.88" y="51.7374" width="29.5642" height="29.5642" rx="14.7821" transform="rotate(-90 126.88 51.7374)" fill="#F8FF13"/>
<path d="M142.017 42.9483V34.2725H141.894L139.282 36.1203V34.4674L142.024 32.533H143.634V42.9483H142.017Z" fill="black"/>
</g>
<g clip-path="url(#clip18_1_189)">
<rect x="234.05" y="166.299" width="29.5642" height="29.5642" rx="14.7821" transform="rotate(-90 234.05 166.299)" fill="#F8FF13"/>
<path d="M248.949 157.762C247.914 157.762 247.062 157.474 246.393 156.896C245.725 156.319 245.366 155.573 245.318 154.659H246.855C246.918 155.164 247.142 155.571 247.527 155.879C247.912 156.187 248.39 156.341 248.963 156.341C249.613 156.341 250.137 156.143 250.536 155.749C250.936 155.354 251.136 154.832 251.136 154.182C251.136 153.533 250.936 153.006 250.536 152.602C250.137 152.193 249.62 151.988 248.985 151.988C248.542 151.988 248.145 152.082 247.794 152.27C247.442 152.457 247.166 152.72 246.964 153.056H245.484L246.033 147.094H252.11V148.538H247.296L247.021 151.591H247.144C247.635 150.961 248.369 150.646 249.346 150.646C250.337 150.646 251.145 150.973 251.771 151.627C252.401 152.277 252.716 153.114 252.716 154.139C252.716 155.217 252.367 156.09 251.67 156.759C250.977 157.428 250.07 157.762 248.949 157.762Z" fill="black"/>
</g>
<g clip-path="url(#clip19_1_189)">
<rect x="162.604" y="166.299" width="29.5642" height="29.5642" rx="14.7821" transform="rotate(-90 162.604 166.299)" fill="#F8FF13"/>
<path d="M172.202 156.278V147.602H172.079L169.466 149.45V147.797L172.209 145.863H173.819V156.278H172.202ZM182.875 156.278V154.264H177.793V152.763C178.602 151.286 180.048 148.986 182.131 145.863H184.434V152.821H185.87V154.264H184.434V156.278H182.875ZM179.345 152.756V152.857H182.896V147.285H182.803C181.58 149.055 180.428 150.879 179.345 152.756Z" fill="black"/>
</g>
<g clip-path="url(#clip20_1_189)">
<rect x="162.604" y="89.9246" width="29.5642" height="29.5642" rx="14.7821" transform="rotate(-90 162.604 89.9246)" fill="#F8FF13"/>
<path d="M177.595 81.3881C176.825 81.3881 176.147 81.2028 175.56 80.8323C174.978 80.4618 174.516 79.9277 174.174 79.23C173.751 78.3975 173.539 77.3413 173.539 76.0613C173.539 74.2954 173.9 72.9216 174.622 71.94C175.348 70.9583 176.363 70.4675 177.668 70.4675C178.587 70.4675 179.369 70.7226 180.013 71.2326C180.658 71.7379 181.06 72.4163 181.219 73.268H179.595C179.465 72.8446 179.227 72.5102 178.88 72.2648C178.534 72.0194 178.125 71.8967 177.653 71.8967C176.854 71.8967 176.231 72.2431 175.784 72.936C175.341 73.6241 175.11 74.5961 175.091 75.852H175.213C175.464 75.3516 175.827 74.9642 176.303 74.69C176.785 74.4157 177.333 74.2785 177.949 74.2785C178.94 74.2785 179.758 74.6057 180.403 75.2602C181.048 75.9146 181.37 76.7446 181.37 77.7503C181.37 78.8137 181.017 79.6871 180.309 80.3704C179.602 81.0489 178.697 81.3881 177.595 81.3881ZM176.022 79.3382C176.44 79.7569 176.96 79.9662 177.581 79.9662C178.202 79.9662 178.721 79.7593 179.14 79.3455C179.559 78.9316 179.768 78.4168 179.768 77.8008C179.768 77.1705 179.563 76.6532 179.154 76.249C178.75 75.8448 178.228 75.6427 177.588 75.6427C176.953 75.6427 176.428 75.8448 176.015 76.249C175.601 76.6484 175.394 77.1561 175.394 77.772C175.394 78.3927 175.603 78.9148 176.022 79.3382Z" fill="black"/>
</g>
<g clip-path="url(#clip21_1_189)">
<rect x="234.05" y="89.9246" width="29.5642" height="29.5642" rx="14.7821" transform="rotate(-90 234.05 89.9246)" fill="#F8FF13"/>
<path d="M239.467 72.4982C239.467 71.5406 239.794 70.7587 240.449 70.1524C241.103 69.5413 241.943 69.2357 242.968 69.2357C243.959 69.2357 244.779 69.5172 245.429 70.0802C246.079 70.6432 246.403 71.3529 246.403 72.2094C246.403 72.7628 246.24 73.3114 245.913 73.8551C245.59 74.394 244.993 75.1038 244.123 75.9844L241.806 78.3302V78.4529H246.569V79.9037H239.554V78.7344L243.076 75.0677C243.769 74.3459 244.231 73.8022 244.462 73.4365C244.693 73.066 244.808 72.6882 244.808 72.3033C244.808 71.8269 244.628 71.4299 244.267 71.1123C243.906 70.7947 243.456 70.636 242.917 70.636C242.345 70.636 241.88 70.8068 241.524 71.1484C241.173 71.4901 240.997 71.94 240.997 72.4982V72.5198H239.467V72.4982ZM252.197 75.2265V73.8912H253.46C254.018 73.8912 254.473 73.7372 254.824 73.4293C255.175 73.1213 255.351 72.7219 255.351 72.2311C255.351 71.7451 255.18 71.3577 254.839 71.069C254.497 70.7755 254.042 70.6287 253.474 70.6287C252.907 70.6287 252.447 70.7755 252.096 71.069C251.749 71.3626 251.555 71.7668 251.511 72.2816H249.974C250.027 71.3385 250.371 70.5951 251.006 70.0513C251.641 69.5076 252.481 69.2357 253.525 69.2357C254.492 69.2357 255.303 69.5004 255.957 70.0297C256.617 70.5542 256.946 71.2086 256.946 71.9929C256.946 72.604 256.778 73.1261 256.441 73.5592C256.109 73.9922 255.657 74.2737 255.084 74.4037V74.5264C255.791 74.6082 256.35 74.8776 256.759 75.3348C257.168 75.7871 257.372 76.3621 257.372 77.0598C257.372 77.6421 257.206 78.169 256.874 78.6405C256.542 79.1121 256.082 79.4826 255.495 79.7521C254.913 80.0215 254.266 80.1563 253.554 80.1563C252.462 80.1563 251.569 79.8748 250.876 79.3118C250.188 78.7488 249.82 78.003 249.772 77.0743H251.324C251.376 77.5795 251.603 77.9813 252.002 78.2796C252.406 78.578 252.923 78.7271 253.554 78.7271C254.189 78.7271 254.709 78.5635 255.113 78.2363C255.517 77.9091 255.719 77.4881 255.719 76.9732C255.719 76.4343 255.522 76.0084 255.127 75.6957C254.733 75.3829 254.194 75.2265 253.511 75.2265H252.197Z" fill="black"/>
</g>
<defs>
<clipPath id="clip0_1_189">
<rect width="29.5642" height="29.5642" fill="white" transform="matrix(0 -1 1 0 23.4052 339.989)"/>
</clipPath>
<clipPath id="clip1_1_189">
<rect width="29.5642" height="29.5642" fill="white" transform="matrix(0 -1 1 0 59.1285 385.567)"/>
</clipPath>
<clipPath id="clip2_1_189">
<rect width="29.5642" height="29.5642" fill="white" transform="matrix(0 -1 1 0 73.9108 295.642)"/>
</clipPath>
<clipPath id="clip3_1_189">
<rect width="29.5642" height="29.5642" fill="white" transform="matrix(0 -1 1 0 92.3884 339.989)"/>
</clipPath>
<clipPath id="clip4_1_189">
<rect width="29.5642" height="29.5642" fill="white" transform="matrix(0 -1 1 0 126.88 385.567)"/>
</clipPath>
<clipPath id="clip5_1_189">
<rect width="29.5642" height="29.5642" fill="white" transform="matrix(0 -1 1 0 126.88 421.29)"/>
</clipPath>
<clipPath id="clip6_1_189">
<rect width="29.5642" height="29.5642" fill="white" transform="matrix(0 -1 1 0 126.88 263.615)"/>
</clipPath>
<clipPath id="clip7_1_189">
<rect width="29.5642" height="29.5642" fill="white" transform="matrix(0 -1 1 0 161.372 339.989)"/>
</clipPath>
<clipPath id="clip8_1_189">
<rect width="29.5642" height="29.5642" fill="white" transform="matrix(0 -1 1 0 194.631 385.567)"/>
</clipPath>
<clipPath id="clip9_1_189">
<rect width="29.5642" height="29.5642" fill="white" transform="matrix(0 -1 1 0 179.849 295.642)"/>
</clipPath>
<clipPath id="clip10_1_189">
<rect width="29.5642" height="29.5642" fill="white" transform="matrix(0 -1 1 0 230.355 339.989)"/>
</clipPath>
<clipPath id="clip11_1_189">
<rect width="29.5642" height="29.5642" fill="white" transform="matrix(0 -1 1 0 19.7095 89.9246)"/>
</clipPath>
<clipPath id="clip12_1_189">
<rect width="29.5642" height="29.5642" fill="white" transform="matrix(0 -1 1 0 19.7095 166.299)"/>
</clipPath>
<clipPath id="clip13_1_189">
<rect width="29.5642" height="29.5642" fill="white" transform="matrix(0 -1 1 0 91.1565 89.9246)"/>
</clipPath>
<clipPath id="clip14_1_189">
<rect width="29.5642" height="29.5642" fill="white" transform="matrix(0 -1 1 0 126.88 128.112)"/>
</clipPath>
<clipPath id="clip15_1_189">
<rect width="29.5642" height="29.5642" fill="white" transform="matrix(0 -1 1 0 91.1565 166.299)"/>
</clipPath>
<clipPath id="clip16_1_189">
<rect width="29.5642" height="29.5642" fill="white" transform="matrix(0 -1 1 0 126.88 206.95)"/>
</clipPath>
<clipPath id="clip17_1_189">
<rect width="29.5642" height="29.5642" fill="white" transform="matrix(0 -1 1 0 126.88 51.7374)"/>
</clipPath>
<clipPath id="clip18_1_189">
<rect width="29.5642" height="29.5642" fill="white" transform="matrix(0 -1 1 0 234.05 166.299)"/>
</clipPath>
<clipPath id="clip19_1_189">
<rect width="29.5642" height="29.5642" fill="white" transform="matrix(0 -1 1 0 162.604 166.299)"/>
</clipPath>
<clipPath id="clip20_1_189">
<rect width="29.5642" height="29.5642" fill="white" transform="matrix(0 -1 1 0 162.604 89.9246)"/>
</clipPath>
<clipPath id="clip21_1_189">
<rect width="29.5642" height="29.5642" fill="white" transform="matrix(0 -1 1 0 234.05 89.9246)"/>
</clipPath>
</defs>
</svg>
