<svg width="284" height="442" viewBox="0 0 284 442" fill="none" xmlns="http://www.w3.org/2000/svg">
<rect x="1.23184" y="439.768" width="438.536" height="280.86" rx="1.23184" transform="rotate(-90 1.23184 439.768)" stroke="#DFE3E2" stroke-width="2.46369"/>
<path d="M1.23187 220.5L282.092 220.5" stroke="#DFE3E2" stroke-width="2.46369" stroke-linecap="square"/>
<path d="M73.9108 441V383.103C73.9108 382.423 74.4623 381.872 75.1426 381.872H208.182C208.862 381.872 209.414 382.423 209.414 383.103V441" stroke="#DFE3E2" stroke-width="2.46369"/>
<path d="M98.5476 441V407.74C98.5476 407.06 99.0991 406.508 99.7795 406.508H183.545C184.225 406.508 184.777 407.06 184.777 407.74V441" stroke="#DFE3E2" stroke-width="2.46369"/>
<path d="M98.5476 3.69554V36.9496C98.5476 37.6321 99.1026 38.1846 99.7852 38.1814L183.551 37.7918C184.229 37.7886 184.777 37.2381 184.777 36.56V4.29152" stroke="#DFE3E2" stroke-width="2.46369" stroke-linecap="square"/>
<path d="M73.9108 3.69551V61.5859C73.9108 62.2687 74.4661 62.8212 75.1489 62.8177L208.188 62.1427C208.866 62.1392 209.414 61.5887 209.414 60.9109V4.7172" stroke="#DFE3E2" stroke-width="2.46369" stroke-linecap="square"/>
<circle cx="141.662" cy="220.5" r="60.3603" transform="rotate(-90 141.662 220.5)" stroke="#DFE3E2" stroke-width="2.46369"/>
<circle cx="141.662" cy="220.5" r="6.15922" transform="rotate(-90 141.662 220.5)" fill="#D8D8D8"/>
<path d="M19.6396 441C19.6396 441 20.2949 432.265 14.8066 426.757C9.31822 421.249 0 421.291 0 421.291" stroke="#DFE3E2" stroke-width="2.46369"/>
<path d="M19.6396 2.46341C19.6396 2.46341 20.2949 11.1982 14.8066 16.7061C9.31822 22.2139 0 22.1729 0 22.1729" stroke="#DFE3E2" stroke-width="2.46369"/>
<path d="M262.453 2.46341C262.453 2.46341 261.797 11.1982 267.286 16.7061C272.774 22.2139 282.092 22.1729 282.092 22.1729" stroke="#DFE3E2" stroke-width="2.46369"/>
<path d="M263.684 441C263.684 441 263.029 432.265 268.517 426.757C274.006 421.249 283.324 421.291 283.324 421.291" stroke="#DFE3E2" stroke-width="2.46369"/>
</svg>
