<svg width="390" height="844" viewBox="0 0 390 844" fill="none" xmlns="http://www.w3.org/2000/svg">
<path d="M62.1214 805.002C36.3486 779.23 -5.43742 779.23 -31.2103 805.002C-56.9831 830.775 -56.9831 872.561 -31.2103 898.334C-5.43744 924.107 36.3486 924.107 62.1214 898.334C87.8943 872.561 87.8942 830.775 62.1214 805.002Z" fill="black"/>
<path d="M201.005 251.908C201.005 245.105 195.49 239.59 188.687 239.59C181.884 239.59 176.369 245.105 176.369 251.908C176.369 258.711 181.884 264.226 188.687 264.226C195.49 264.226 201.005 258.711 201.005 251.908Z" fill="black"/>
<path d="M360.251 829.421C348.91 818.079 330.521 818.079 319.18 829.421C307.838 840.763 307.838 859.151 319.18 870.493C330.521 881.834 348.91 881.834 360.251 870.493C371.593 859.151 371.593 840.763 360.251 829.421Z" fill="#F8FF13"/>
<path d="M269.504 847.575C269.504 886.232 300.85 917.577 339.506 917.577C378.163 917.577 409.508 886.232 409.508 847.575C409.508 808.919 378.163 777.573 339.506 777.573C300.85 777.573 269.504 808.919 269.504 847.575ZM388.378 847.575C388.378 874.515 366.546 896.447 339.506 896.447C312.467 896.447 290.635 874.615 290.635 847.575C290.635 820.636 312.467 798.704 339.506 798.704C366.546 798.704 388.378 820.636 388.378 847.575Z" fill="white"/>
<path d="M33.861 95.6802C33.861 134.336 65.2066 165.682 103.863 165.682C142.519 165.682 173.865 134.336 173.865 95.6802C173.865 57.0239 142.519 25.6782 103.863 25.6782C65.2066 25.6782 33.861 56.9237 33.861 95.6802ZM152.734 95.6802C152.734 122.619 130.902 144.551 103.863 144.551C76.9237 144.551 54.9917 122.72 54.9917 95.6802C54.9917 68.741 76.8235 46.809 103.863 46.809C130.902 46.809 152.734 68.6408 152.734 95.6802Z" fill="white"/>
<path d="M70.9149 95.6802C70.9149 113.907 85.7365 128.628 103.863 128.628C121.989 128.628 136.811 113.907 136.811 95.6802C136.811 77.4536 121.989 62.7322 103.863 62.7322C85.7365 62.7322 70.9149 77.4536 70.9149 95.6802ZM126.896 95.6802C126.896 108.399 116.581 118.714 103.863 118.714C91.1444 118.714 80.8293 108.399 80.8293 95.6802C80.8293 82.9617 91.1444 72.6466 103.863 72.6466C116.682 72.6466 126.896 82.9617 126.896 95.6802Z" fill="#F8FF13"/>
<path d="M15.1335 675.024C15.1335 634.261 -17.9112 601.217 -58.674 601.217C-99.4367 601.217 -132.481 634.261 -132.481 675.024C-132.481 715.787 -99.4367 748.831 -58.674 748.831C-17.9112 748.831 15.1335 715.787 15.1335 675.024Z" stroke="white" stroke-miterlimit="10"/>
<path d="M-53.0112 621.626C-82.5458 618.499 -109.024 639.906 -112.151 669.44C-115.279 698.975 -93.8715 725.453 -64.3369 728.58C-34.8023 731.708 -8.32439 710.301 -5.19688 680.766C-2.06937 651.232 -23.4766 624.754 -53.0112 621.626Z" stroke="white" stroke-miterlimit="10"/>
<path d="M468.037 155.471C428.367 146.104 388.614 170.669 379.247 210.34C369.879 250.01 394.445 289.763 434.115 299.13C473.785 308.497 513.538 283.932 522.906 244.262C532.273 204.591 507.707 164.838 468.037 155.471Z" stroke="white" stroke-miterlimit="10"/>
<path d="M24.8682 812.945C3.64084 808.022 -17.558 821.24 -22.4808 842.467C-27.4035 863.694 -14.186 884.893 7.0413 889.816C28.2686 894.739 49.4675 881.521 54.3902 860.294C59.313 839.067 46.0955 817.868 24.8682 812.945Z" fill="#F8FF13"/>
<path d="M40.6707 851.381C40.6707 865.001 29.5545 876.017 16.0348 876.017C2.41496 876.017 -8.60107 864.9 -8.60107 851.381C-8.60107 837.861 2.51511 826.745 16.0348 826.745C29.5545 826.745 40.6707 837.761 40.6707 851.381Z" fill="white"/>
<path d="M321.58 631.26L321.58 587.897L359.135 609.529L396.689 631.26L359.135 652.892L321.58 674.623L321.58 631.26Z" fill="black"/>
<path d="M79.3274 275.342L79.3274 346.346L17.938 310.794L-43.5515 275.342L17.938 239.891L79.3274 204.439L79.3274 275.342Z" fill="black"/>
<path d="M57.9962 273.94L57.9962 305.586L30.6563 289.763L3.31653 273.94L30.6563 258.117L57.9962 242.394L57.9962 273.94Z" stroke="white" stroke-miterlimit="10"/>
<path d="M-14.109 517.094L-14.109 531.916L-28.9305 531.916L-28.9305 550.543L-14.109 550.543L-14.109 565.464L4.61831 565.464L4.61831 550.543L19.4399 550.543L19.4399 531.916L4.61831 531.916L4.61831 517.094L-14.109 517.094Z" fill="black"/>
<path d="M11.2282 413.343L11.2282 424.259L1.81451 418.751L-7.69934 413.343L1.81451 407.935L11.2282 402.427L11.2282 413.343Z" stroke="white" stroke-miterlimit="10"/>
<path d="M45.7783 413.743C45.7783 419.452 41.1716 424.058 35.4633 424.058C29.755 424.058 25.1483 419.452 25.1483 413.743C25.1483 408.035 29.755 403.428 35.4633 403.428C41.1717 403.428 45.7783 408.035 45.7783 413.743Z" fill="#F8FF13"/>
<path d="M321.88 183.608C321.88 178.741 317.935 174.796 313.067 174.796C308.2 174.796 304.255 178.741 304.255 183.608C304.255 188.476 308.2 192.421 313.067 192.421C317.935 192.421 321.88 188.476 321.88 183.608Z" fill="#F8FF13"/>
<path d="M254.683 182.406L254.683 193.322L245.269 187.814L235.855 182.406L245.269 176.898L254.683 171.491L254.683 182.406Z" stroke="white" stroke-miterlimit="10"/>
<path d="M289.333 182.807C289.333 188.515 284.726 193.122 279.018 193.122C273.309 193.122 268.703 188.515 268.703 182.807C268.703 177.099 273.309 172.492 279.018 172.492C284.626 172.392 289.333 177.099 289.333 182.807Z" fill="#F8FF13"/>
<path d="M366.445 489.754L366.445 510.484L387.176 510.484L387.176 489.754L366.445 489.754Z" fill="#F8FF13"/>
<path d="M350.549 -15L328.317 -15L328.317 119.696L350.549 119.696L350.549 -15Z" stroke="white" stroke-miterlimit="10"/>
<path d="M387.801 -14.997L365.568 -14.997L365.568 119.699L387.801 119.699L387.801 -14.997Z" stroke="white" stroke-miterlimit="10"/>
<path d="M263.996 254.612L263.996 313.197L322.581 313.197L322.581 254.612L263.996 254.612Z" fill="black"/>
<path d="M224.138 274.24L224.138 293.068L242.965 293.068L242.965 274.24L224.138 274.24Z" fill="#F8FF13"/>
<path d="M285.127 401.926L285.127 416.748L299.948 416.748L299.948 401.926L285.127 401.926Z" fill="white"/>
<path d="M285.127 434.373L285.127 449.195L299.948 449.195L299.948 434.373L285.127 434.373Z" fill="white"/>
<path d="M59.1979 767.258C59.1979 764.216 56.7319 761.75 53.6899 761.75C50.6479 761.75 48.1819 764.216 48.1819 767.258C48.1819 770.3 50.6479 772.766 53.6899 772.766C56.7319 772.766 59.1979 770.3 59.1979 767.258Z" fill="white"/>
<path d="M73.0181 767.258C73.0181 764.216 70.5521 761.75 67.5101 761.75C64.4681 761.75 62.0021 764.216 62.0021 767.258C62.0021 770.3 64.4681 772.766 67.5101 772.766C70.5521 772.766 73.0181 770.3 73.0181 767.258Z" fill="white"/>
<path d="M86.9389 767.258C86.9389 764.216 84.4729 761.75 81.4309 761.75C78.3889 761.75 75.9229 764.216 75.9229 767.258C75.9229 770.3 78.3889 772.766 81.4309 772.766C84.4729 772.766 86.9389 770.3 86.9389 767.258Z" fill="white"/>
<path d="M286.629 379.293L286.629 296.573" stroke="white" stroke-miterlimit="10"/>
<path d="M299.748 379.293L299.748 296.573" stroke="white" stroke-miterlimit="10"/>
<path d="M218.23 685.339L135.509 685.339" stroke="white" stroke-miterlimit="10"/>
<path d="M124.193 843.469C124.193 842.474 123.385 841.666 122.39 841.666C121.394 841.666 120.587 842.474 120.587 843.469C120.587 844.465 121.394 845.272 122.39 845.272C123.385 845.272 124.193 844.465 124.193 843.469Z" fill="#F8FF13"/>
<path d="M124.193 830.751C124.193 829.755 123.385 828.948 122.39 828.948C121.394 828.948 120.587 829.755 120.587 830.751C120.587 831.746 121.394 832.553 122.39 832.553C123.385 832.553 124.193 831.746 124.193 830.751Z" fill="#F8FF13"/>
<path d="M122.39 816.229C123.391 816.229 124.193 817.031 124.193 818.032C124.193 819.034 123.391 819.835 122.39 819.835C121.388 819.835 120.587 819.034 120.587 818.032C120.587 817.131 121.388 816.229 122.39 816.229Z" fill="#F8FF13"/>
<path d="M135.108 843.469C135.108 842.474 134.301 841.666 133.306 841.666C132.31 841.666 131.503 842.474 131.503 843.469C131.503 844.465 132.31 845.272 133.306 845.272C134.301 845.272 135.108 844.465 135.108 843.469Z" fill="#F8FF13"/>
<path d="M135.108 830.751C135.108 829.755 134.301 828.948 133.306 828.948C132.31 828.948 131.503 829.755 131.503 830.751C131.503 831.746 132.31 832.553 133.306 832.553C134.301 832.553 135.108 831.746 135.108 830.751Z" fill="#F8FF13"/>
<path d="M133.306 816.229C134.307 816.229 135.108 817.031 135.108 818.032C135.108 819.034 134.307 819.835 133.306 819.835C132.304 819.835 131.503 819.034 131.503 818.032C131.503 817.131 132.304 816.229 133.306 816.229Z" fill="#F8FF13"/>
<path d="M146.124 843.469C146.124 842.474 145.317 841.667 144.322 841.667C143.326 841.667 142.519 842.474 142.519 843.469C142.519 844.465 143.326 845.272 144.322 845.272C145.317 845.272 146.124 844.465 146.124 843.469Z" fill="#F8FF13"/>
<path d="M146.124 830.751C146.124 829.755 145.317 828.948 144.322 828.948C143.326 828.948 142.519 829.755 142.519 830.751C142.519 831.746 143.326 832.553 144.322 832.553C145.317 832.553 146.124 831.746 146.124 830.751Z" fill="#F8FF13"/>
<path d="M144.322 816.23C145.323 816.23 146.124 817.031 146.124 818.032C146.124 819.034 145.323 819.835 144.322 819.835C143.32 819.835 142.519 819.034 142.519 818.032C142.519 817.131 143.32 816.23 144.322 816.23Z" fill="#F8FF13"/>
<path d="M157.04 843.469C157.04 842.474 156.233 841.667 155.238 841.667C154.242 841.667 153.435 842.474 153.435 843.469C153.435 844.465 154.242 845.272 155.238 845.272C156.233 845.272 157.04 844.465 157.04 843.469Z" fill="#F8FF13"/>
<path d="M157.04 830.751C157.04 829.755 156.233 828.948 155.238 828.948C154.242 828.948 153.435 829.755 153.435 830.751C153.435 831.746 154.242 832.553 155.238 832.553C156.233 832.553 157.04 831.746 157.04 830.751Z" fill="#F8FF13"/>
<path d="M155.238 816.229C156.239 816.229 157.04 817.031 157.04 818.032C157.04 819.034 156.239 819.835 155.238 819.835C154.236 819.835 153.435 819.034 153.435 818.032C153.435 817.131 154.236 816.229 155.238 816.229Z" fill="#F8FF13"/>
<path d="M168.056 843.469C168.056 842.474 167.249 841.667 166.254 841.667C165.258 841.667 164.451 842.474 164.451 843.469C164.451 844.465 165.258 845.272 166.254 845.272C167.249 845.272 168.056 844.465 168.056 843.469Z" fill="#F8FF13"/>
<path d="M168.056 830.751C168.056 829.755 167.249 828.948 166.254 828.948C165.258 828.948 164.451 829.755 164.451 830.751C164.451 831.746 165.258 832.553 166.254 832.553C167.249 832.553 168.056 831.746 168.056 830.751Z" fill="#F8FF13"/>
<path d="M166.254 816.23C167.255 816.23 168.056 817.031 168.056 818.032C168.056 819.034 167.255 819.835 166.254 819.835C165.252 819.835 164.451 819.034 164.451 818.032C164.451 817.131 165.252 816.23 166.254 816.23Z" fill="#F8FF13"/>
<path d="M178.972 843.469C178.972 842.474 178.165 841.667 177.169 841.667C176.174 841.667 175.367 842.474 175.367 843.469C175.367 844.465 176.174 845.272 177.169 845.272C178.165 845.272 178.972 844.465 178.972 843.469Z" fill="#F8FF13"/>
<path d="M178.972 830.751C178.972 829.755 178.165 828.948 177.169 828.948C176.174 828.948 175.367 829.755 175.367 830.751C175.367 831.746 176.174 832.553 177.169 832.553C178.165 832.553 178.972 831.746 178.972 830.751Z" fill="#F8FF13"/>
<path d="M177.169 816.23C178.171 816.23 178.972 817.031 178.972 818.032C178.972 819.034 178.171 819.835 177.169 819.835C176.168 819.835 175.367 819.034 175.367 818.032C175.367 817.131 176.168 816.23 177.169 816.23Z" fill="#F8FF13"/>
<path d="M189.989 843.469C189.989 842.474 189.182 841.667 188.186 841.667C187.191 841.667 186.384 842.474 186.384 843.469C186.384 844.465 187.191 845.272 188.186 845.272C189.182 845.272 189.989 844.465 189.989 843.469Z" fill="#F8FF13"/>
<path d="M189.989 830.751C189.989 829.755 189.182 828.948 188.186 828.948C187.191 828.948 186.384 829.755 186.384 830.751C186.384 831.746 187.191 832.553 188.186 832.553C189.182 832.553 189.989 831.746 189.989 830.751Z" fill="#F8FF13"/>
<path d="M188.186 816.23C189.187 816.23 189.988 817.031 189.988 818.032C189.988 819.034 189.187 819.835 188.186 819.835C187.184 819.835 186.383 819.034 186.383 818.032C186.283 817.131 187.184 816.23 188.186 816.23Z" fill="#F8FF13"/>
<path d="M200.904 843.469C200.904 842.474 200.097 841.667 199.101 841.667C198.106 841.667 197.299 842.474 197.299 843.469C197.299 844.465 198.106 845.272 199.101 845.272C200.097 845.272 200.904 844.465 200.904 843.469Z" fill="#F8FF13"/>
<path d="M200.904 830.751C200.904 829.755 200.097 828.948 199.101 828.948C198.106 828.948 197.299 829.755 197.299 830.751C197.299 831.746 198.106 832.553 199.101 832.553C200.097 832.553 200.904 831.746 200.904 830.751Z" fill="#F8FF13"/>
<path d="M199.101 816.229C200.103 816.229 200.904 817.031 200.904 818.032C200.904 819.034 200.103 819.835 199.101 819.835C198.1 819.835 197.299 819.034 197.299 818.032C197.299 817.131 198.1 816.229 199.101 816.229Z" fill="#F8FF13"/>
</svg>
