<svg width="390" height="844" viewBox="0 0 390 844" fill="none" xmlns="http://www.w3.org/2000/svg">
<path d="M62.1214 124.998C36.3486 150.77 -5.43742 150.77 -31.2103 124.998C-56.9831 99.2247 -56.9831 57.4387 -31.2103 31.6659C-5.43744 5.89304 36.3486 5.89304 62.1214 31.6659C87.8943 57.4387 87.8942 99.2247 62.1214 124.998Z" fill="black"/>
<path d="M201.005 678.092C201.005 684.895 195.49 690.41 188.687 690.41C181.884 690.41 176.369 684.895 176.369 678.092C176.369 671.289 181.884 665.774 188.687 665.774C195.49 665.774 201.005 671.289 201.005 678.092Z" fill="black"/>
<path d="M360.251 100.579C348.91 111.921 330.521 111.921 319.18 100.579C307.838 89.2374 307.838 70.8491 319.18 59.5074C330.521 48.1658 348.91 48.1658 360.251 59.5074C371.593 70.849 371.593 89.2374 360.251 100.579Z" fill="#F8FF13"/>
<path d="M269.504 82.4247C269.504 43.7684 300.85 12.4227 339.506 12.4227C378.163 12.4227 409.508 43.7684 409.508 82.4246C409.508 121.081 378.163 152.427 339.506 152.427C300.85 152.427 269.504 121.081 269.504 82.4247ZM388.377 82.4246C388.377 55.4854 366.546 33.5535 339.506 33.5535C312.467 33.5535 290.635 55.3853 290.635 82.4247C290.635 109.364 312.467 131.296 339.506 131.296C366.546 131.296 388.377 109.364 388.377 82.4246Z" fill="white"/>
<path d="M33.861 834.32C33.861 795.664 65.2066 764.318 103.863 764.318C142.519 764.318 173.865 795.664 173.865 834.32C173.865 872.976 142.519 904.322 103.863 904.322C65.2066 904.322 33.861 873.076 33.861 834.32ZM152.734 834.32C152.734 807.381 130.902 785.449 103.863 785.449C76.9237 785.449 54.9917 807.28 54.9917 834.32C54.9917 861.259 76.8235 883.191 103.863 883.191C130.902 883.191 152.734 861.359 152.734 834.32Z" fill="white"/>
<path d="M70.9149 834.32C70.9149 816.093 85.7365 801.372 103.863 801.372C121.989 801.372 136.811 816.093 136.811 834.32C136.811 852.546 121.989 867.268 103.863 867.268C85.7365 867.268 70.9149 852.546 70.9149 834.32ZM126.896 834.32C126.896 821.601 116.581 811.286 103.863 811.286C91.1444 811.286 80.8293 821.601 80.8293 834.32C80.8293 847.038 91.1444 857.353 103.863 857.353C116.682 857.353 126.896 847.038 126.896 834.32Z" fill="#F8FF13"/>
<path d="M15.1336 254.976C15.1336 295.739 -17.9112 328.783 -58.6739 328.783C-99.4366 328.783 -132.481 295.739 -132.481 254.976C-132.481 214.213 -99.4366 181.168 -58.6739 181.168C-17.9112 181.168 15.1336 214.213 15.1336 254.976Z" stroke="white" stroke-miterlimit="10"/>
<path d="M-53.0112 308.374C-82.5458 311.501 -109.024 290.094 -112.151 260.559C-115.279 231.025 -93.8715 204.547 -64.3369 201.419C-34.8023 198.292 -8.32439 219.699 -5.19688 249.234C-2.06937 278.768 -23.4766 305.246 -53.0112 308.374Z" stroke="white" stroke-miterlimit="10"/>
<path d="M468.037 774.529C428.367 783.896 388.614 759.331 379.247 719.66C369.879 679.99 394.445 640.237 434.115 630.87C473.785 621.503 513.538 646.068 522.906 685.738C532.273 725.409 507.707 765.162 468.037 774.529Z" stroke="white" stroke-miterlimit="10"/>
<path d="M24.8681 117.055C3.64078 121.978 -17.5581 108.76 -22.4808 87.5329C-27.4036 66.3056 -14.1861 45.1067 7.04124 40.184C28.2686 35.2612 49.4674 48.4787 54.3902 69.706C59.3129 90.9334 46.0955 112.132 24.8681 117.055Z" fill="#F8FF13"/>
<path d="M40.6707 78.6192C40.6707 64.9993 29.5545 53.9833 16.0349 53.9833C2.41502 53.9833 -8.60101 65.0995 -8.60101 78.6192C-8.60101 92.1389 2.51517 103.255 16.0349 103.255C29.5545 103.255 40.6707 92.239 40.6707 78.6192Z" fill="white"/>
<path d="M321.58 298.74L321.58 342.103L359.135 320.471L396.689 298.74L359.135 277.108L321.58 255.377L321.58 298.74Z" fill="black"/>
<path d="M351.123 240.555L351.123 263.088L370.652 251.872L390.28 240.555L370.652 229.239L351.123 218.022L351.123 240.555Z" stroke="white" stroke-miterlimit="10"/>
<path d="M79.3274 654.658L79.3274 583.654L17.938 619.206L-43.5516 654.658L17.938 690.109L79.3274 725.561L79.3274 654.658Z" fill="black"/>
<path d="M223.638 172.156L223.638 161.34L214.224 166.748L204.81 172.156L214.224 177.664L223.638 183.071L223.638 172.156Z" stroke="white" stroke-miterlimit="10"/>
<path d="M-14.109 412.906L-14.109 398.084L-28.9305 398.084L-28.9305 379.457L-14.109 379.457L-14.109 364.536L4.61831 364.536L4.61831 379.457L19.4399 379.457L19.4399 398.084L4.61831 398.084L4.61831 412.906L-14.109 412.906Z" fill="black"/>
<path d="M258.187 171.855C258.187 166.146 253.581 161.54 247.872 161.54C242.164 161.54 237.557 166.146 237.557 171.855C237.557 177.563 242.164 182.17 247.872 182.17C253.581 182.17 258.187 177.563 258.187 171.855Z" fill="#F8FF13"/>
<path d="M11.2283 516.657L11.2283 505.741L1.81457 511.249L-7.69928 516.657L1.81457 522.065L11.2283 527.573L11.2283 516.657Z" stroke="white" stroke-miterlimit="10"/>
<path d="M45.7784 516.257C45.7784 510.548 41.1717 505.942 35.4634 505.942C29.7551 505.942 25.1484 510.548 25.1484 516.257C25.1484 521.965 29.7551 526.572 35.4634 526.572C41.1717 526.572 45.7784 521.965 45.7784 516.257Z" fill="#F8FF13"/>
<path d="M321.88 746.392C321.88 751.259 317.935 755.204 313.067 755.204C308.2 755.204 304.255 751.259 304.255 746.392C304.255 741.524 308.2 737.579 313.067 737.579C317.935 737.579 321.88 741.524 321.88 746.392Z" fill="#F8FF13"/>
<path d="M254.683 747.593L254.683 736.678L245.269 742.186L235.855 747.593L245.269 753.101L254.683 758.509L254.683 747.593Z" stroke="white" stroke-miterlimit="10"/>
<path d="M289.333 747.193C289.333 741.485 284.726 736.878 279.018 736.878C273.31 736.878 268.703 741.485 268.703 747.193C268.703 752.901 273.31 757.508 279.018 757.508C284.626 757.608 289.333 752.901 289.333 747.193Z" fill="#F8FF13"/>
<path d="M366.445 440.246L366.445 419.516L387.176 419.516L387.176 440.246L366.445 440.246Z" fill="#F8FF13"/>
<path d="M350.549 945L328.317 945L328.317 810.304L350.549 810.304L350.549 945Z" stroke="white" stroke-miterlimit="10"/>
<path d="M387.801 944.997L365.568 944.997L365.568 810.301L387.801 810.301L387.801 944.997Z" stroke="white" stroke-miterlimit="10"/>
<path d="M263.996 675.388L263.996 616.803L322.581 616.803L322.581 675.388L263.996 675.388Z" fill="black"/>
<path d="M285.127 528.074L285.127 513.252L299.948 513.252L299.948 528.074L285.127 528.074Z" fill="white"/>
<path d="M285.127 495.627L285.127 480.805L299.948 480.805L299.948 495.627L285.127 495.627Z" fill="white"/>
<path d="M105.165 257.78L105.165 242.959L119.987 242.959L119.987 257.78L105.165 257.78Z" fill="white"/>
<path d="M101.059 162.742C101.059 165.784 98.5927 168.25 95.5507 168.25C92.5087 168.25 90.0427 165.784 90.0427 162.742C90.0427 159.7 92.5087 157.234 95.5507 157.234C98.5927 157.234 101.059 159.7 101.059 162.742Z" fill="white"/>
<path d="M114.578 162.742C114.578 165.784 112.112 168.25 109.07 168.25C106.028 168.25 103.562 165.784 103.562 162.742C103.562 159.7 106.028 157.234 109.07 157.234C112.112 157.234 114.578 159.7 114.578 162.742Z" fill="white"/>
<path d="M128.098 162.742C128.098 165.784 125.632 168.25 122.59 168.25C119.548 168.25 117.082 165.784 117.082 162.742C117.082 159.7 119.548 157.234 122.59 157.234C125.632 157.234 128.098 159.7 128.098 162.742Z" fill="white"/>
<path d="M59.198 162.742C59.198 165.784 56.732 168.25 53.69 168.25C50.648 168.25 48.1819 165.784 48.1819 162.742C48.1819 159.7 50.648 157.234 53.69 157.234C56.732 157.234 59.198 159.7 59.198 162.742Z" fill="white"/>
<path d="M73.0181 162.742C73.0181 165.784 70.5521 168.25 67.5101 168.25C64.4681 168.25 62.0021 165.784 62.0021 162.742C62.0021 159.7 64.4681 157.234 67.5101 157.234C70.5521 157.234 73.0181 159.7 73.0181 162.742Z" fill="white"/>
<path d="M86.939 162.742C86.939 165.784 84.4729 168.25 81.4309 168.25C78.3889 168.25 75.9229 165.784 75.9229 162.742C75.9229 159.7 78.3889 157.234 81.4309 157.234C84.4729 157.234 86.939 159.7 86.939 162.742Z" fill="white"/>
<path d="M286.629 550.707L286.629 633.427" stroke="white" stroke-miterlimit="10"/>
<path d="M299.748 550.707L299.748 633.427" stroke="white" stroke-miterlimit="10"/>
<path d="M218.23 244.661L135.509 244.661" stroke="white" stroke-miterlimit="10"/>
<path d="M218.23 257.78L135.509 257.78" stroke="white" stroke-miterlimit="10"/>
<path d="M122.39 37.7598C123.391 37.7598 124.192 36.9587 124.192 35.9572C124.192 34.9558 123.391 34.1546 122.39 34.1546C121.388 34.1546 120.587 34.9558 120.587 35.9572C120.587 36.9587 121.388 37.7598 122.39 37.7598Z" fill="#F8FF13"/>
<path d="M124.193 48.5756C124.193 49.5712 123.385 50.3782 122.39 50.3782C121.394 50.3782 120.587 49.5712 120.587 48.5756C120.587 47.5801 121.394 46.773 122.39 46.773C123.385 46.773 124.193 47.5801 124.193 48.5756Z" fill="#F8FF13"/>
<path d="M122.39 63.0967C123.391 63.0967 124.193 62.2956 124.193 61.2941C124.193 60.2927 123.391 59.4915 122.39 59.4915C121.388 59.4915 120.587 60.2927 120.587 61.2941C120.587 62.2956 121.388 63.0967 122.39 63.0967Z" fill="#F8FF13"/>
<path d="M122.39 75.7151C123.391 75.7151 124.193 74.9139 124.193 73.9125C124.193 72.911 123.391 72.1099 122.39 72.1099C121.388 72.1099 120.587 72.911 120.587 73.9125C120.587 74.9139 121.388 75.7151 122.39 75.7151Z" fill="#F8FF13"/>
<path d="M124.193 86.5309C124.193 87.5264 123.385 88.3335 122.39 88.3335C121.394 88.3335 120.587 87.5264 120.587 86.5309C120.587 85.5353 121.394 84.7282 122.39 84.7282C123.385 84.7282 124.193 85.5353 124.193 86.5309Z" fill="#F8FF13"/>
<path d="M124.193 99.2494C124.193 100.245 123.385 101.052 122.39 101.052C121.394 101.052 120.587 100.245 120.587 99.2494C120.587 98.2538 121.394 97.4468 122.39 97.4468C123.385 97.4468 124.193 98.2538 124.193 99.2494Z" fill="#F8FF13"/>
<path d="M122.39 113.771C123.391 113.771 124.193 112.969 124.193 111.968C124.193 110.966 123.391 110.165 122.39 110.165C121.388 110.165 120.587 110.966 120.587 111.968C120.587 112.869 121.388 113.771 122.39 113.771Z" fill="#F8FF13"/>
<path d="M133.306 37.7598C134.307 37.7598 135.109 36.9587 135.109 35.9572C135.109 34.9558 134.307 34.1546 133.306 34.1546C132.305 34.1546 131.503 34.9558 131.503 35.9572C131.503 36.9587 132.305 37.7598 133.306 37.7598Z" fill="#F8FF13"/>
<path d="M135.108 48.5756C135.108 49.5712 134.301 50.3782 133.306 50.3782C132.31 50.3782 131.503 49.5712 131.503 48.5756C131.503 47.5801 132.31 46.773 133.306 46.773C134.301 46.773 135.108 47.5801 135.108 48.5756Z" fill="#F8FF13"/>
<path d="M133.306 63.0967C134.307 63.0967 135.108 62.2956 135.108 61.2941C135.108 60.2927 134.307 59.4915 133.306 59.4915C132.304 59.4915 131.503 60.2927 131.503 61.2941C131.503 62.2956 132.304 63.0967 133.306 63.0967Z" fill="#F8FF13"/>
<path d="M133.306 75.7151C134.307 75.7151 135.108 74.9139 135.108 73.9125C135.108 72.911 134.307 72.1099 133.306 72.1099C132.304 72.1099 131.503 72.911 131.503 73.9125C131.503 74.9139 132.304 75.7151 133.306 75.7151Z" fill="#F8FF13"/>
<path d="M135.108 86.5309C135.108 87.5264 134.301 88.3335 133.306 88.3335C132.31 88.3335 131.503 87.5264 131.503 86.5309C131.503 85.5353 132.31 84.7282 133.306 84.7282C134.301 84.7282 135.108 85.5353 135.108 86.5309Z" fill="#F8FF13"/>
<path d="M135.108 99.2494C135.108 100.245 134.301 101.052 133.306 101.052C132.31 101.052 131.503 100.245 131.503 99.2494C131.503 98.2538 132.31 97.4468 133.306 97.4468C134.301 97.4468 135.108 98.2538 135.108 99.2494Z" fill="#F8FF13"/>
<path d="M133.306 113.771C134.307 113.771 135.108 112.969 135.108 111.968C135.108 110.966 134.307 110.165 133.306 110.165C132.304 110.165 131.503 110.966 131.503 111.968C131.503 112.869 132.304 113.771 133.306 113.771Z" fill="#F8FF13"/>
<path d="M144.322 37.7598C145.323 37.7598 146.124 36.9586 146.124 35.9572C146.124 34.9557 145.323 34.1545 144.322 34.1545C143.32 34.1545 142.519 34.9557 142.519 35.9572C142.519 36.9586 143.32 37.7598 144.322 37.7598Z" fill="#F8FF13"/>
<path d="M146.124 48.5755C146.124 49.5711 145.317 50.3782 144.322 50.3782C143.326 50.3782 142.519 49.5711 142.519 48.5755C142.519 47.58 143.326 46.7729 144.322 46.7729C145.317 46.7729 146.124 47.58 146.124 48.5755Z" fill="#F8FF13"/>
<path d="M144.322 63.0967C145.323 63.0967 146.124 62.2955 146.124 61.294C146.124 60.2926 145.323 59.4914 144.322 59.4914C143.32 59.4914 142.519 60.2926 142.519 61.294C142.519 62.2955 143.32 63.0967 144.322 63.0967Z" fill="#F8FF13"/>
<path d="M144.322 75.715C145.323 75.715 146.124 74.9139 146.124 73.9124C146.124 72.911 145.323 72.1098 144.322 72.1098C143.32 72.1098 142.519 72.911 142.519 73.9124C142.519 74.9139 143.32 75.715 144.322 75.715Z" fill="#F8FF13"/>
<path d="M146.124 86.5308C146.124 87.5263 145.317 88.3334 144.322 88.3334C143.326 88.3334 142.519 87.5263 142.519 86.5308C142.519 85.5352 143.326 84.7281 144.322 84.7281C145.317 84.7281 146.124 85.5352 146.124 86.5308Z" fill="#F8FF13"/>
<path d="M146.124 99.2493C146.124 100.245 145.317 101.052 144.322 101.052C143.326 101.052 142.519 100.245 142.519 99.2493C142.519 98.2538 143.326 97.4467 144.322 97.4467C145.317 97.4467 146.124 98.2538 146.124 99.2493Z" fill="#F8FF13"/>
<path d="M144.322 113.77C145.323 113.77 146.124 112.969 146.124 111.968C146.124 110.966 145.323 110.165 144.322 110.165C143.32 110.165 142.519 110.966 142.519 111.968C142.519 112.869 143.32 113.77 144.322 113.77Z" fill="#F8FF13"/>
<path d="M155.237 37.7598C156.239 37.7598 157.04 36.9586 157.04 35.9572C157.04 34.9557 156.239 34.1545 155.237 34.1545C154.236 34.1545 153.435 34.9557 153.435 35.9572C153.435 36.9586 154.236 37.7598 155.237 37.7598Z" fill="#F8FF13"/>
<path d="M157.04 48.5755C157.04 49.5711 156.233 50.3782 155.238 50.3782C154.242 50.3782 153.435 49.5711 153.435 48.5755C153.435 47.58 154.242 46.7729 155.238 46.7729C156.233 46.7729 157.04 47.58 157.04 48.5755Z" fill="#F8FF13"/>
<path d="M155.238 63.0967C156.239 63.0967 157.04 62.2955 157.04 61.294C157.04 60.2926 156.239 59.4914 155.238 59.4914C154.236 59.4914 153.435 60.2926 153.435 61.294C153.435 62.2955 154.236 63.0967 155.238 63.0967Z" fill="#F8FF13"/>
<path d="M155.238 75.715C156.239 75.715 157.04 74.9139 157.04 73.9124C157.04 72.9109 156.239 72.1098 155.238 72.1098C154.236 72.1098 153.435 72.9109 153.435 73.9124C153.435 74.9139 154.236 75.715 155.238 75.715Z" fill="#F8FF13"/>
<path d="M157.04 86.5308C157.04 87.5263 156.233 88.3334 155.238 88.3334C154.242 88.3334 153.435 87.5263 153.435 86.5308C153.435 85.5352 154.242 84.7281 155.238 84.7281C156.233 84.7281 157.04 85.5352 157.04 86.5308Z" fill="#F8FF13"/>
<path d="M157.04 99.2493C157.04 100.245 156.233 101.052 155.238 101.052C154.242 101.052 153.435 100.245 153.435 99.2493C153.435 98.2538 154.242 97.4467 155.238 97.4467C156.233 97.4467 157.04 98.2538 157.04 99.2493Z" fill="#F8FF13"/>
<path d="M155.238 113.77C156.239 113.77 157.04 112.969 157.04 111.968C157.04 110.966 156.239 110.165 155.238 110.165C154.236 110.165 153.435 110.966 153.435 111.968C153.435 112.869 154.236 113.77 155.238 113.77Z" fill="#F8FF13"/>
<path d="M166.254 37.7598C167.255 37.7598 168.056 36.9586 168.056 35.9572C168.056 34.9557 167.255 34.1546 166.254 34.1546C165.252 34.1546 164.451 34.9557 164.451 35.9572C164.451 36.9586 165.252 37.7598 166.254 37.7598Z" fill="#F8FF13"/>
<path d="M168.056 48.5755C168.056 49.5711 167.249 50.3782 166.254 50.3782C165.258 50.3782 164.451 49.5711 164.451 48.5755C164.451 47.58 165.258 46.7729 166.254 46.7729C167.249 46.7729 168.056 47.58 168.056 48.5755Z" fill="#F8FF13"/>
<path d="M166.254 63.0967C167.255 63.0967 168.056 62.2955 168.056 61.2941C168.056 60.2926 167.255 59.4914 166.254 59.4914C165.252 59.4914 164.451 60.2926 164.451 61.2941C164.451 62.2955 165.252 63.0967 166.254 63.0967Z" fill="#F8FF13"/>
<path d="M166.254 75.7151C167.255 75.7151 168.056 74.9139 168.056 73.9124C168.056 72.911 167.255 72.1098 166.254 72.1098C165.252 72.1098 164.451 72.911 164.451 73.9124C164.451 74.9139 165.252 75.7151 166.254 75.7151Z" fill="#F8FF13"/>
<path d="M168.056 86.5308C168.056 87.5263 167.249 88.3334 166.254 88.3334C165.258 88.3334 164.451 87.5263 164.451 86.5308C164.451 85.5352 165.258 84.7282 166.254 84.7282C167.249 84.7282 168.056 85.5352 168.056 86.5308Z" fill="#F8FF13"/>
<path d="M168.056 99.2493C168.056 100.245 167.249 101.052 166.254 101.052C165.258 101.052 164.451 100.245 164.451 99.2493C164.451 98.2538 165.258 97.4467 166.254 97.4467C167.249 97.4467 168.056 98.2538 168.056 99.2493Z" fill="#F8FF13"/>
<path d="M166.254 113.77C167.255 113.77 168.056 112.969 168.056 111.968C168.056 110.966 167.255 110.165 166.254 110.165C165.252 110.165 164.451 110.966 164.451 111.968C164.451 112.869 165.252 113.77 166.254 113.77Z" fill="#F8FF13"/>
<path d="M177.17 37.7598C178.171 37.7598 178.972 36.9586 178.972 35.9572C178.972 34.9557 178.171 34.1546 177.17 34.1546C176.168 34.1546 175.367 34.9557 175.367 35.9572C175.367 36.9586 176.168 37.7598 177.17 37.7598Z" fill="#F8FF13"/>
<path d="M178.972 48.5755C178.972 49.5711 178.165 50.3782 177.17 50.3782C176.174 50.3782 175.367 49.5711 175.367 48.5755C175.367 47.58 176.174 46.7729 177.17 46.7729C178.165 46.7729 178.972 47.58 178.972 48.5755Z" fill="#F8FF13"/>
<path d="M177.17 63.0967C178.171 63.0967 178.972 62.2955 178.972 61.2941C178.972 60.2926 178.171 59.4914 177.17 59.4914C176.168 59.4914 175.367 60.2926 175.367 61.2941C175.367 62.2955 176.168 63.0967 177.17 63.0967Z" fill="#F8FF13"/>
<path d="M177.17 75.715C178.171 75.715 178.972 74.9139 178.972 73.9124C178.972 72.911 178.171 72.1098 177.17 72.1098C176.168 72.1098 175.367 72.911 175.367 73.9124C175.367 74.9139 176.168 75.715 177.17 75.715Z" fill="#F8FF13"/>
<path d="M178.972 86.5308C178.972 87.5263 178.165 88.3334 177.17 88.3334C176.174 88.3334 175.367 87.5263 175.367 86.5308C175.367 85.5352 176.174 84.7282 177.17 84.7282C178.165 84.7282 178.972 85.5352 178.972 86.5308Z" fill="#F8FF13"/>
<path d="M178.972 99.2493C178.972 100.245 178.165 101.052 177.17 101.052C176.174 101.052 175.367 100.245 175.367 99.2493C175.367 98.2538 176.174 97.4467 177.17 97.4467C178.165 97.4467 178.972 98.2538 178.972 99.2493Z" fill="#F8FF13"/>
<path d="M177.17 113.77C178.171 113.77 178.972 112.969 178.972 111.968C178.972 110.966 178.171 110.165 177.17 110.165C176.168 110.165 175.367 110.966 175.367 111.968C175.367 112.869 176.168 113.77 177.17 113.77Z" fill="#F8FF13"/>
<path d="M188.186 37.7598C189.187 37.7598 189.989 36.9586 189.989 35.9572C189.989 34.9557 189.187 34.1546 188.186 34.1546C187.184 34.1546 186.383 34.9557 186.383 35.9572C186.283 36.9586 187.184 37.7598 188.186 37.7598Z" fill="#F8FF13"/>
<path d="M189.989 48.5755C189.989 49.5711 189.182 50.3782 188.186 50.3782C187.191 50.3782 186.384 49.5711 186.384 48.5755C186.384 47.58 187.191 46.7729 188.186 46.7729C189.182 46.7729 189.989 47.58 189.989 48.5755Z" fill="#F8FF13"/>
<path d="M188.186 63.0967C189.187 63.0967 189.989 62.2955 189.989 61.2941C189.989 60.2926 189.187 59.4914 188.186 59.4914C187.184 59.4914 186.383 60.2926 186.383 61.2941C186.283 62.2955 187.184 63.0967 188.186 63.0967Z" fill="#F8FF13"/>
<path d="M188.186 75.715C189.187 75.715 189.989 74.9139 189.989 73.9124C189.989 72.911 189.187 72.1098 188.186 72.1098C187.184 72.1098 186.383 72.911 186.383 73.9124C186.283 74.9139 187.184 75.715 188.186 75.715Z" fill="#F8FF13"/>
<path d="M189.989 86.5308C189.989 87.5263 189.182 88.3334 188.186 88.3334C187.191 88.3334 186.384 87.5263 186.384 86.5308C186.384 85.5352 187.191 84.7282 188.186 84.7282C189.182 84.7282 189.989 85.5352 189.989 86.5308Z" fill="#F8FF13"/>
<path d="M189.989 99.2493C189.989 100.245 189.182 101.052 188.186 101.052C187.191 101.052 186.384 100.245 186.384 99.2493C186.384 98.2538 187.191 97.4467 188.186 97.4467C189.182 97.4467 189.989 98.2538 189.989 99.2493Z" fill="#F8FF13"/>
<path d="M188.186 113.77C189.187 113.77 189.989 112.969 189.989 111.968C189.989 110.966 189.187 110.165 188.186 110.165C187.184 110.165 186.383 110.966 186.383 111.968C186.283 112.869 187.184 113.77 188.186 113.77Z" fill="#F8FF13"/>
<path d="M199.102 37.7598C200.103 37.7598 200.904 36.9586 200.904 35.9572C200.904 34.9557 200.103 34.1546 199.102 34.1546C198.1 34.1546 197.299 34.9557 197.299 35.9572C197.299 36.9586 198.1 37.7598 199.102 37.7598Z" fill="#F8FF13"/>
<path d="M200.904 48.5755C200.904 49.5711 200.097 50.3782 199.101 50.3782C198.106 50.3782 197.299 49.5711 197.299 48.5755C197.299 47.58 198.106 46.7729 199.101 46.7729C200.097 46.7729 200.904 47.58 200.904 48.5755Z" fill="#F8FF13"/>
<path d="M199.101 63.0967C200.103 63.0967 200.904 62.2955 200.904 61.2941C200.904 60.2926 200.103 59.4914 199.101 59.4914C198.1 59.4914 197.299 60.2926 197.299 61.2941C197.299 62.2955 198.1 63.0967 199.101 63.0967Z" fill="#F8FF13"/>
<path d="M199.101 75.7151C200.103 75.7151 200.904 74.9139 200.904 73.9124C200.904 72.911 200.103 72.1098 199.101 72.1098C198.1 72.1098 197.299 72.911 197.299 73.9124C197.299 74.9139 198.1 75.7151 199.101 75.7151Z" fill="#F8FF13"/>
<path d="M200.904 86.5308C200.904 87.5263 200.097 88.3334 199.101 88.3334C198.106 88.3334 197.299 87.5263 197.299 86.5308C197.299 85.5352 198.106 84.7282 199.101 84.7282C200.097 84.7282 200.904 85.5352 200.904 86.5308Z" fill="#F8FF13"/>
<path d="M200.904 99.2493C200.904 100.245 200.097 101.052 199.101 101.052C198.106 101.052 197.299 100.245 197.299 99.2493C197.299 98.2538 198.106 97.4467 199.101 97.4467C200.097 97.4467 200.904 98.2538 200.904 99.2493Z" fill="#F8FF13"/>
<path d="M199.101 113.77C200.103 113.77 200.904 112.969 200.904 111.968C200.904 110.966 200.103 110.165 199.101 110.165C198.1 110.165 197.299 110.966 197.299 111.968C197.299 112.869 198.1 113.77 199.101 113.77Z" fill="#F8FF13"/>
</svg>
