<svg width="390" height="844" viewBox="0 0 390 844" fill="none" xmlns="http://www.w3.org/2000/svg">
<path d="M273.691 124.998C299.464 150.77 341.25 150.77 367.023 124.998C392.796 99.2247 392.796 57.4387 367.023 31.6659C341.25 5.89304 299.464 5.89304 273.691 31.6659C247.919 57.4387 247.919 99.2247 273.691 124.998Z" fill="black"/>
<path d="M134.808 678.092C134.808 684.895 140.323 690.41 147.126 690.41C153.929 690.41 159.444 684.895 159.444 678.092C159.444 671.289 153.929 665.774 147.126 665.774C140.323 665.774 134.808 671.289 134.808 678.092Z" fill="black"/>
<path d="M-24.4383 100.579C-13.0967 111.921 5.29166 111.921 16.6333 100.579C27.9749 89.2374 27.9749 70.8491 16.6333 59.5074C5.29166 48.1658 -13.0967 48.1658 -24.4383 59.5074C-35.7799 70.849 -35.7799 89.2374 -24.4383 100.579Z" fill="#F8FF13"/>
<path d="M66.3085 82.4247C66.3085 43.7684 34.9628 12.4227 -3.69349 12.4227C-42.3498 12.4227 -73.6954 43.7684 -73.6954 82.4246C-73.6954 121.081 -42.3498 152.427 -3.6935 152.427C34.9628 152.427 66.3085 121.081 66.3085 82.4247ZM-52.5646 82.4246C-52.5646 55.4854 -30.7329 33.5535 -3.69349 33.5535C23.3459 33.5535 45.1777 55.3853 45.1777 82.4247C45.1777 109.364 23.3459 131.296 -3.69349 131.296C-30.7329 131.296 -52.5646 109.364 -52.5646 82.4246Z" fill="white"/>
<path d="M301.952 834.32C301.952 795.664 270.606 764.318 231.95 764.318C193.294 764.318 161.948 795.664 161.948 834.32C161.948 872.976 193.294 904.322 231.95 904.322C270.606 904.322 301.952 873.076 301.952 834.32ZM183.079 834.32C183.079 807.381 204.911 785.449 231.95 785.449C258.889 785.449 280.821 807.28 280.821 834.32C280.821 861.259 258.989 883.191 231.95 883.191C204.911 883.191 183.079 861.359 183.079 834.32Z" fill="white"/>
<path d="M264.898 834.32C264.898 816.093 250.076 801.372 231.95 801.372C213.824 801.372 199.002 816.093 199.002 834.32C199.002 852.546 213.824 867.268 231.95 867.268C250.076 867.268 264.898 852.546 264.898 834.32ZM208.916 834.32C208.916 821.601 219.231 811.286 231.95 811.286C244.668 811.286 254.983 821.601 254.983 834.32C254.983 847.038 244.668 857.353 231.95 857.353C219.131 857.353 208.916 847.038 208.916 834.32Z" fill="#F8FF13"/>
<path d="M320.679 254.976C320.679 295.739 353.724 328.783 394.487 328.783C435.249 328.783 468.294 295.739 468.294 254.976C468.294 214.213 435.249 181.168 394.487 181.168C353.724 181.168 320.679 214.213 320.679 254.976Z" stroke="white" stroke-miterlimit="10"/>
<path d="M388.824 308.374C418.359 311.501 444.836 290.094 447.964 260.559C451.091 231.025 429.684 204.547 400.15 201.419C370.615 198.292 344.137 219.699 341.01 249.234C337.882 278.768 359.289 305.246 388.824 308.374Z" stroke="white" stroke-miterlimit="10"/>
<path d="M310.945 117.055C332.172 121.978 353.371 108.76 358.294 87.5329C363.216 66.3056 349.999 45.1067 328.772 40.184C307.544 35.2612 286.345 48.4787 281.423 69.706C276.5 90.9334 289.717 112.132 310.945 117.055Z" fill="#F8FF13"/>
<path d="M295.142 78.6192C295.142 64.9993 306.258 53.9833 319.778 53.9833C333.398 53.9833 344.414 65.0995 344.414 78.6192C344.414 92.1389 333.298 103.255 319.778 103.255C306.258 103.255 295.142 92.239 295.142 78.6192Z" fill="white"/>
<path d="M14.2328 298.74L14.2328 342.103L-23.3219 320.471L-60.8766 298.74L-23.3219 277.108L14.2328 255.377L14.2328 298.74Z" fill="black"/>
<path d="M256.485 654.658L256.485 583.654L317.875 619.206L379.364 654.658L317.875 690.109L256.485 725.561L256.485 654.658Z" fill="black"/>
<path d="M112.175 172.156L112.175 161.34L121.589 166.748L131.002 172.156L121.589 177.664L112.175 183.071L112.175 172.156Z" stroke="white" stroke-miterlimit="10"/>
<path d="M349.922 412.906L349.922 398.084L364.743 398.084L364.743 379.457L349.922 379.457L349.922 364.536L331.195 364.536L331.195 379.457L316.373 379.457L316.373 398.084L331.195 398.084L331.195 412.906L349.922 412.906Z" fill="black"/>
<path d="M77.6255 171.855C77.6255 166.146 82.2322 161.54 87.9405 161.54C93.6489 161.54 98.2556 166.146 98.2556 171.855C98.2556 177.563 93.6489 182.17 87.9405 182.17C82.2322 182.17 77.6255 177.563 77.6255 171.855Z" fill="#F8FF13"/>
<path d="M324.585 516.657L324.585 505.741L333.998 511.249L343.512 516.657L333.998 522.065L324.585 527.573L324.585 516.657Z" stroke="white" stroke-miterlimit="10"/>
<path d="M290.034 516.257C290.034 510.548 294.641 505.942 300.349 505.942C306.058 505.942 310.664 510.548 310.664 516.257C310.664 521.965 306.058 526.572 300.349 526.572C294.641 526.572 290.034 521.965 290.034 516.257Z" fill="#F8FF13"/>
<path d="M13.9327 746.392C13.9327 751.259 17.8783 755.204 22.7455 755.204C27.6127 755.204 31.5583 751.259 31.5583 746.392C31.5583 741.524 27.6127 737.579 22.7455 737.579C17.8783 737.579 13.9327 741.524 13.9327 746.392Z" fill="#F8FF13"/>
<path d="M81.1303 747.593L81.1303 736.678L90.544 742.186L99.9577 747.593L90.544 753.101L81.1303 758.509L81.1303 747.593Z" stroke="white" stroke-miterlimit="10"/>
<path d="M46.48 747.193C46.48 741.485 51.0867 736.878 56.795 736.878C62.5033 736.878 67.11 741.485 67.11 747.193C67.11 752.901 62.5033 757.508 56.795 757.508C51.1868 757.608 46.48 752.901 46.48 747.193Z" fill="#F8FF13"/>
<path d="M-14.7365 945L7.49588 945L7.49589 810.304L-14.7365 810.304L-14.7365 945Z" stroke="white" stroke-miterlimit="10"/>
<path d="M71.8167 675.388L71.8167 616.803L13.2314 616.803L13.2314 675.388L71.8167 675.388Z" fill="black"/>
<path d="M392.684 526.972C386.876 526.972 382.069 522.265 382.069 516.357C382.069 510.548 386.776 505.741 392.684 505.741C398.493 505.741 403.3 510.448 403.3 516.357C403.3 522.165 398.493 526.972 392.684 526.972Z" fill="black"/>
<path d="M457.979 595.973L359.436 595.973C348.119 595.973 338.906 586.759 338.906 575.443C338.906 564.126 348.119 554.913 359.436 554.913L457.979 554.913L457.979 595.973Z" fill="#F8FF13"/>
<path d="M50.6862 528.074L50.6862 513.252L35.8646 513.252L35.8646 528.074L50.6862 528.074Z" fill="white"/>
<path d="M50.6862 495.627L50.6862 480.805L35.8646 480.805L35.8646 495.627L50.6862 495.627Z" fill="white"/>
<path d="M230.648 257.78L230.648 242.959L215.826 242.959L215.826 257.78L230.648 257.78Z" fill="white"/>
<path d="M234.754 162.742C234.754 165.784 237.22 168.25 240.262 168.25C243.304 168.25 245.77 165.784 245.77 162.742C245.77 159.7 243.304 157.234 240.262 157.234C237.22 157.234 234.754 159.7 234.754 162.742Z" fill="white"/>
<path d="M221.234 162.742C221.234 165.784 223.701 168.25 226.743 168.25C229.785 168.25 232.251 165.784 232.251 162.742C232.251 159.7 229.785 157.234 226.743 157.234C223.701 157.234 221.234 159.7 221.234 162.742Z" fill="white"/>
<path d="M207.715 162.742C207.715 165.784 210.181 168.25 213.223 168.25C216.265 168.25 218.731 165.784 218.731 162.742C218.731 159.7 216.265 157.234 213.223 157.234C210.181 157.234 207.715 159.7 207.715 162.742Z" fill="white"/>
<path d="M276.615 162.742C276.615 165.784 279.081 168.25 282.123 168.25C285.165 168.25 287.631 165.784 287.631 162.742C287.631 159.7 285.165 157.234 282.123 157.234C279.081 157.234 276.615 159.7 276.615 162.742Z" fill="white"/>
<path d="M262.795 162.742C262.795 165.784 265.261 168.25 268.303 168.25C271.345 168.25 273.811 165.784 273.811 162.742C273.811 159.7 271.345 157.234 268.303 157.234C265.261 157.234 262.795 159.7 262.795 162.742Z" fill="white"/>
<path d="M248.874 162.742C248.874 165.784 251.34 168.25 254.382 168.25C257.424 168.25 259.89 165.784 259.89 162.742C259.89 159.7 257.424 157.234 254.382 157.234C251.34 157.234 248.874 159.7 248.874 162.742Z" fill="white"/>
<path d="M49.1839 550.707L49.1839 633.427" stroke="white" stroke-miterlimit="10"/>
<path d="M36.0646 550.707L36.0646 633.427" stroke="white" stroke-miterlimit="10"/>
<path d="M117.583 244.661L200.304 244.661" stroke="white" stroke-miterlimit="10"/>
<path d="M117.583 257.78L200.304 257.78" stroke="white" stroke-miterlimit="10"/>
<path d="M213.423 37.7598C212.422 37.7598 211.62 36.9587 211.62 35.9572C211.62 34.9558 212.422 34.1546 213.423 34.1546C214.424 34.1546 215.226 34.9558 215.226 35.9572C215.226 36.9587 214.424 37.7598 213.423 37.7598Z" fill="#F8FF13"/>
<path d="M211.62 48.5756C211.62 49.5712 212.427 50.3782 213.423 50.3782C214.419 50.3782 215.226 49.5712 215.226 48.5756C215.226 47.5801 214.419 46.773 213.423 46.773C212.427 46.773 211.62 47.5801 211.62 48.5756Z" fill="#F8FF13"/>
<path d="M213.423 63.0967C212.421 63.0967 211.62 62.2956 211.62 61.2941C211.62 60.2927 212.421 59.4915 213.423 59.4915C214.424 59.4915 215.226 60.2927 215.226 61.2941C215.226 62.2956 214.424 63.0967 213.423 63.0967Z" fill="#F8FF13"/>
<path d="M213.423 75.7151C212.421 75.7151 211.62 74.9139 211.62 73.9125C211.62 72.911 212.421 72.1099 213.423 72.1099C214.424 72.1099 215.226 72.911 215.226 73.9125C215.226 74.9139 214.424 75.7151 213.423 75.7151Z" fill="#F8FF13"/>
<path d="M211.62 86.5309C211.62 87.5264 212.427 88.3335 213.423 88.3335C214.419 88.3335 215.226 87.5264 215.226 86.5309C215.226 85.5353 214.419 84.7282 213.423 84.7282C212.427 84.7282 211.62 85.5353 211.62 86.5309Z" fill="#F8FF13"/>
<path d="M211.62 99.2494C211.62 100.245 212.427 101.052 213.423 101.052C214.419 101.052 215.226 100.245 215.226 99.2494C215.226 98.2538 214.419 97.4468 213.423 97.4468C212.427 97.4468 211.62 98.2538 211.62 99.2494Z" fill="#F8FF13"/>
<path d="M213.423 113.771C212.421 113.771 211.62 112.969 211.62 111.968C211.62 110.966 212.421 110.165 213.423 110.165C214.424 110.165 215.226 110.966 215.226 111.968C215.226 112.869 214.424 113.771 213.423 113.771Z" fill="#F8FF13"/>
<path d="M202.507 37.7598C201.505 37.7598 200.704 36.9587 200.704 35.9572C200.704 34.9558 201.505 34.1546 202.507 34.1546C203.508 34.1546 204.309 34.9558 204.309 35.9572C204.309 36.9587 203.508 37.7598 202.507 37.7598Z" fill="#F8FF13"/>
<path d="M200.704 48.5756C200.704 49.5712 201.511 50.3782 202.507 50.3782C203.503 50.3782 204.31 49.5712 204.31 48.5756C204.31 47.5801 203.503 46.773 202.507 46.773C201.511 46.773 200.704 47.5801 200.704 48.5756Z" fill="#F8FF13"/>
<path d="M202.507 63.0967C201.506 63.0967 200.704 62.2956 200.704 61.2941C200.704 60.2927 201.506 59.4915 202.507 59.4915C203.508 59.4915 204.31 60.2927 204.31 61.2941C204.31 62.2956 203.508 63.0967 202.507 63.0967Z" fill="#F8FF13"/>
<path d="M202.507 75.7151C201.506 75.7151 200.704 74.9139 200.704 73.9125C200.704 72.911 201.506 72.1099 202.507 72.1099C203.508 72.1099 204.31 72.911 204.31 73.9125C204.31 74.9139 203.508 75.7151 202.507 75.7151Z" fill="#F8FF13"/>
<path d="M200.704 86.5309C200.704 87.5264 201.511 88.3335 202.507 88.3335C203.503 88.3335 204.31 87.5264 204.31 86.5309C204.31 85.5353 203.503 84.7282 202.507 84.7282C201.511 84.7282 200.704 85.5353 200.704 86.5309Z" fill="#F8FF13"/>
<path d="M200.704 99.2494C200.704 100.245 201.511 101.052 202.507 101.052C203.503 101.052 204.31 100.245 204.31 99.2494C204.31 98.2538 203.503 97.4468 202.507 97.4468C201.511 97.4468 200.704 98.2538 200.704 99.2494Z" fill="#F8FF13"/>
<path d="M202.507 113.771C201.506 113.771 200.704 112.969 200.704 111.968C200.704 110.966 201.506 110.165 202.507 110.165C203.508 110.165 204.31 110.966 204.31 111.968C204.31 112.869 203.508 113.771 202.507 113.771Z" fill="#F8FF13"/>
<path d="M191.491 37.7598C190.49 37.7598 189.688 36.9586 189.688 35.9572C189.688 34.9557 190.49 34.1545 191.491 34.1545C192.492 34.1545 193.294 34.9557 193.294 35.9572C193.294 36.9586 192.492 37.7598 191.491 37.7598Z" fill="#F8FF13"/>
<path d="M189.688 48.5755C189.688 49.5711 190.495 50.3782 191.491 50.3782C192.487 50.3782 193.294 49.5711 193.294 48.5755C193.294 47.58 192.487 46.7729 191.491 46.7729C190.495 46.7729 189.688 47.58 189.688 48.5755Z" fill="#F8FF13"/>
<path d="M191.491 63.0967C190.49 63.0967 189.688 62.2955 189.688 61.294C189.688 60.2926 190.49 59.4914 191.491 59.4914C192.492 59.4914 193.294 60.2926 193.294 61.294C193.294 62.2955 192.492 63.0967 191.491 63.0967Z" fill="#F8FF13"/>
<path d="M191.491 75.715C190.49 75.715 189.688 74.9139 189.688 73.9124C189.688 72.911 190.49 72.1098 191.491 72.1098C192.492 72.1098 193.294 72.911 193.294 73.9124C193.294 74.9139 192.492 75.715 191.491 75.715Z" fill="#F8FF13"/>
<path d="M189.688 86.5308C189.688 87.5263 190.495 88.3334 191.491 88.3334C192.487 88.3334 193.294 87.5263 193.294 86.5308C193.294 85.5352 192.487 84.7281 191.491 84.7281C190.495 84.7281 189.688 85.5352 189.688 86.5308Z" fill="#F8FF13"/>
<path d="M189.688 99.2493C189.688 100.245 190.495 101.052 191.491 101.052C192.487 101.052 193.294 100.245 193.294 99.2493C193.294 98.2538 192.487 97.4467 191.491 97.4467C190.495 97.4467 189.688 98.2538 189.688 99.2493Z" fill="#F8FF13"/>
<path d="M191.491 113.77C190.49 113.77 189.688 112.969 189.688 111.968C189.688 110.966 190.49 110.165 191.491 110.165C192.492 110.165 193.294 110.966 193.294 111.968C193.294 112.869 192.492 113.77 191.491 113.77Z" fill="#F8FF13"/>
<path d="M180.575 37.7598C179.574 37.7598 178.773 36.9586 178.773 35.9572C178.773 34.9557 179.574 34.1545 180.575 34.1545C181.577 34.1545 182.378 34.9557 182.378 35.9572C182.378 36.9586 181.577 37.7598 180.575 37.7598Z" fill="#F8FF13"/>
<path d="M178.773 48.5755C178.773 49.5711 179.58 50.3782 180.575 50.3782C181.571 50.3782 182.378 49.5711 182.378 48.5755C182.378 47.58 181.571 46.7729 180.575 46.7729C179.58 46.7729 178.773 47.58 178.773 48.5755Z" fill="#F8FF13"/>
<path d="M180.575 63.0967C179.574 63.0967 178.773 62.2955 178.773 61.294C178.773 60.2926 179.574 59.4914 180.575 59.4914C181.577 59.4914 182.378 60.2926 182.378 61.294C182.378 62.2955 181.577 63.0967 180.575 63.0967Z" fill="#F8FF13"/>
<path d="M180.575 75.715C179.574 75.715 178.773 74.9139 178.773 73.9124C178.773 72.9109 179.574 72.1098 180.575 72.1098C181.577 72.1098 182.378 72.9109 182.378 73.9124C182.378 74.9139 181.577 75.715 180.575 75.715Z" fill="#F8FF13"/>
<path d="M178.773 86.5308C178.773 87.5263 179.58 88.3334 180.575 88.3334C181.571 88.3334 182.378 87.5263 182.378 86.5308C182.378 85.5352 181.571 84.7281 180.575 84.7281C179.58 84.7281 178.773 85.5352 178.773 86.5308Z" fill="#F8FF13"/>
<path d="M178.773 99.2493C178.773 100.245 179.58 101.052 180.575 101.052C181.571 101.052 182.378 100.245 182.378 99.2493C182.378 98.2538 181.571 97.4467 180.575 97.4467C179.58 97.4467 178.773 98.2538 178.773 99.2493Z" fill="#F8FF13"/>
<path d="M180.575 113.77C179.574 113.77 178.773 112.969 178.773 111.968C178.773 110.966 179.574 110.165 180.575 110.165C181.577 110.165 182.378 110.966 182.378 111.968C182.378 112.869 181.577 113.77 180.575 113.77Z" fill="#F8FF13"/>
<path d="M169.559 37.7598C168.558 37.7598 167.756 36.9586 167.756 35.9572C167.756 34.9557 168.558 34.1546 169.559 34.1546C170.56 34.1546 171.362 34.9557 171.362 35.9572C171.362 36.9586 170.56 37.7598 169.559 37.7598Z" fill="#F8FF13"/>
<path d="M167.756 48.5755C167.756 49.5711 168.563 50.3782 169.559 50.3782C170.555 50.3782 171.362 49.5711 171.362 48.5755C171.362 47.58 170.555 46.7729 169.559 46.7729C168.563 46.7729 167.756 47.58 167.756 48.5755Z" fill="#F8FF13"/>
<path d="M169.559 63.0967C168.558 63.0967 167.756 62.2955 167.756 61.2941C167.756 60.2926 168.558 59.4914 169.559 59.4914C170.56 59.4914 171.362 60.2926 171.362 61.2941C171.362 62.2955 170.56 63.0967 169.559 63.0967Z" fill="#F8FF13"/>
<path d="M169.559 75.7151C168.558 75.7151 167.756 74.9139 167.756 73.9124C167.756 72.911 168.558 72.1098 169.559 72.1098C170.56 72.1098 171.362 72.911 171.362 73.9124C171.362 74.9139 170.56 75.7151 169.559 75.7151Z" fill="#F8FF13"/>
<path d="M167.756 86.5308C167.756 87.5263 168.563 88.3334 169.559 88.3334C170.555 88.3334 171.362 87.5263 171.362 86.5308C171.362 85.5352 170.555 84.7282 169.559 84.7282C168.563 84.7282 167.756 85.5352 167.756 86.5308Z" fill="#F8FF13"/>
<path d="M167.756 99.2493C167.756 100.245 168.563 101.052 169.559 101.052C170.555 101.052 171.362 100.245 171.362 99.2493C171.362 98.2538 170.555 97.4467 169.559 97.4467C168.563 97.4467 167.756 98.2538 167.756 99.2493Z" fill="#F8FF13"/>
<path d="M169.559 113.77C168.558 113.77 167.756 112.969 167.756 111.968C167.756 110.966 168.558 110.165 169.559 110.165C170.56 110.165 171.362 110.966 171.362 111.968C171.362 112.869 170.56 113.77 169.559 113.77Z" fill="#F8FF13"/>
<path d="M158.643 37.7598C157.642 37.7598 156.841 36.9586 156.841 35.9572C156.841 34.9557 157.642 34.1546 158.643 34.1546C159.645 34.1546 160.446 34.9557 160.446 35.9572C160.446 36.9586 159.645 37.7598 158.643 37.7598Z" fill="#F8FF13"/>
<path d="M156.841 48.5755C156.841 49.5711 157.648 50.3782 158.643 50.3782C159.639 50.3782 160.446 49.5711 160.446 48.5755C160.446 47.58 159.639 46.7729 158.643 46.7729C157.648 46.7729 156.841 47.58 156.841 48.5755Z" fill="#F8FF13"/>
<path d="M158.643 63.0967C157.642 63.0967 156.841 62.2955 156.841 61.2941C156.841 60.2926 157.642 59.4914 158.643 59.4914C159.645 59.4914 160.446 60.2926 160.446 61.2941C160.446 62.2955 159.645 63.0967 158.643 63.0967Z" fill="#F8FF13"/>
<path d="M158.643 75.715C157.642 75.715 156.841 74.9139 156.841 73.9124C156.841 72.911 157.642 72.1098 158.643 72.1098C159.645 72.1098 160.446 72.911 160.446 73.9124C160.446 74.9139 159.645 75.715 158.643 75.715Z" fill="#F8FF13"/>
<path d="M156.841 86.5308C156.841 87.5263 157.648 88.3334 158.643 88.3334C159.639 88.3334 160.446 87.5263 160.446 86.5308C160.446 85.5352 159.639 84.7282 158.643 84.7282C157.648 84.7282 156.841 85.5352 156.841 86.5308Z" fill="#F8FF13"/>
<path d="M156.841 99.2493C156.841 100.245 157.648 101.052 158.643 101.052C159.639 101.052 160.446 100.245 160.446 99.2493C160.446 98.2538 159.639 97.4467 158.643 97.4467C157.648 97.4467 156.841 98.2538 156.841 99.2493Z" fill="#F8FF13"/>
<path d="M158.643 113.77C157.642 113.77 156.841 112.969 156.841 111.968C156.841 110.966 157.642 110.165 158.643 110.165C159.645 110.165 160.446 110.966 160.446 111.968C160.446 112.869 159.645 113.77 158.643 113.77Z" fill="#F8FF13"/>
<path d="M147.627 37.7598C146.625 37.7598 145.824 36.9586 145.824 35.9572C145.824 34.9557 146.625 34.1546 147.627 34.1546C148.628 34.1546 149.43 34.9557 149.43 35.9572C149.53 36.9586 148.628 37.7598 147.627 37.7598Z" fill="#F8FF13"/>
<path d="M145.824 48.5755C145.824 49.5711 146.631 50.3782 147.626 50.3782C148.622 50.3782 149.429 49.5711 149.429 48.5755C149.429 47.58 148.622 46.7729 147.626 46.7729C146.631 46.7729 145.824 47.58 145.824 48.5755Z" fill="#F8FF13"/>
<path d="M147.627 63.0967C146.625 63.0967 145.824 62.2955 145.824 61.2941C145.824 60.2926 146.625 59.4914 147.627 59.4914C148.628 59.4914 149.43 60.2926 149.43 61.2941C149.53 62.2955 148.628 63.0967 147.627 63.0967Z" fill="#F8FF13"/>
<path d="M147.627 75.715C146.625 75.715 145.824 74.9139 145.824 73.9124C145.824 72.911 146.625 72.1098 147.627 72.1098C148.628 72.1098 149.43 72.911 149.43 73.9124C149.53 74.9139 148.628 75.715 147.627 75.715Z" fill="#F8FF13"/>
<path d="M145.824 86.5308C145.824 87.5263 146.631 88.3334 147.626 88.3334C148.622 88.3334 149.429 87.5263 149.429 86.5308C149.429 85.5352 148.622 84.7282 147.626 84.7282C146.631 84.7282 145.824 85.5352 145.824 86.5308Z" fill="#F8FF13"/>
<path d="M145.824 99.2493C145.824 100.245 146.631 101.052 147.626 101.052C148.622 101.052 149.429 100.245 149.429 99.2493C149.429 98.2538 148.622 97.4467 147.626 97.4467C146.631 97.4467 145.824 98.2538 145.824 99.2493Z" fill="#F8FF13"/>
<path d="M147.627 113.77C146.625 113.77 145.824 112.969 145.824 111.968C145.824 110.966 146.625 110.165 147.627 110.165C148.628 110.165 149.43 110.966 149.43 111.968C149.53 112.869 148.628 113.77 147.627 113.77Z" fill="#F8FF13"/>
<path d="M136.711 37.7598C135.71 37.7598 134.909 36.9586 134.909 35.9572C134.909 34.9557 135.71 34.1546 136.711 34.1546C137.713 34.1546 138.514 34.9557 138.514 35.9572C138.514 36.9586 137.713 37.7598 136.711 37.7598Z" fill="#F8FF13"/>
<path d="M134.909 48.5755C134.909 49.5711 135.716 50.3782 136.711 50.3782C137.707 50.3782 138.514 49.5711 138.514 48.5755C138.514 47.58 137.707 46.7729 136.711 46.7729C135.716 46.7729 134.909 47.58 134.909 48.5755Z" fill="#F8FF13"/>
<path d="M136.711 63.0967C135.71 63.0967 134.909 62.2955 134.909 61.2941C134.909 60.2926 135.71 59.4914 136.711 59.4914C137.713 59.4914 138.514 60.2926 138.514 61.2941C138.514 62.2955 137.713 63.0967 136.711 63.0967Z" fill="#F8FF13"/>
<path d="M136.711 75.7151C135.71 75.7151 134.909 74.9139 134.909 73.9124C134.909 72.911 135.71 72.1098 136.711 72.1098C137.713 72.1098 138.514 72.911 138.514 73.9124C138.514 74.9139 137.713 75.7151 136.711 75.7151Z" fill="#F8FF13"/>
<path d="M134.909 86.5308C134.909 87.5263 135.716 88.3334 136.711 88.3334C137.707 88.3334 138.514 87.5263 138.514 86.5308C138.514 85.5352 137.707 84.7282 136.711 84.7282C135.716 84.7282 134.909 85.5352 134.909 86.5308Z" fill="#F8FF13"/>
<path d="M134.909 99.2493C134.909 100.245 135.716 101.052 136.711 101.052C137.707 101.052 138.514 100.245 138.514 99.2493C138.514 98.2538 137.707 97.4467 136.711 97.4467C135.716 97.4467 134.909 98.2538 134.909 99.2493Z" fill="#F8FF13"/>
<path d="M136.711 113.77C135.71 113.77 134.909 112.969 134.909 111.968C134.909 110.966 135.71 110.165 136.711 110.165C137.713 110.165 138.514 110.966 138.514 111.968C138.514 112.869 137.713 113.77 136.711 113.77Z" fill="#F8FF13"/>
<path d="M385.073 428.429C384.272 428.429 383.671 427.828 383.671 427.027C383.671 426.225 384.272 425.625 385.073 425.625C385.874 425.625 386.475 426.225 386.475 427.027C386.475 427.828 385.874 428.429 385.073 428.429Z" fill="#F8FF13"/>
<path d="M385.073 437.942C384.272 437.942 383.671 437.342 383.671 436.54C383.671 435.739 384.272 435.138 385.073 435.138C385.874 435.138 386.475 435.739 386.475 436.54C386.475 437.342 385.874 437.942 385.073 437.942Z" fill="#F8FF13"/>
<path d="M385.073 447.456C384.272 447.456 383.671 446.855 383.671 446.054C383.671 445.253 384.272 444.652 385.073 444.652C385.874 444.652 386.475 445.253 386.475 446.054C386.475 446.855 385.874 447.456 385.073 447.456Z" fill="#F8FF13"/>
<path d="M385.073 457.07C384.272 457.07 383.671 456.469 383.671 455.668C383.671 454.867 384.272 454.266 385.073 454.266C385.874 454.266 386.475 454.867 386.475 455.668C386.475 456.469 385.874 457.07 385.073 457.07Z" fill="#F8FF13"/>
<path d="M385.073 466.584C384.272 466.584 383.671 465.983 383.671 465.182C383.671 464.381 384.272 463.78 385.073 463.78C385.874 463.78 386.475 464.381 386.475 465.182C386.475 465.983 385.874 466.584 385.073 466.584Z" fill="#F8FF13"/>
<path d="M385.073 476.098C384.272 476.098 383.671 475.497 383.671 474.696C383.671 473.895 384.272 473.294 385.073 473.294C385.874 473.294 386.475 473.895 386.475 474.696C386.475 475.497 385.874 476.098 385.073 476.098Z" fill="#F8FF13"/>
<path d="M385.073 485.612C384.272 485.612 383.671 485.011 383.671 484.21C383.671 483.409 384.272 482.808 385.073 482.808C385.874 482.808 386.475 483.409 386.475 484.21C386.475 485.011 385.874 485.612 385.073 485.612Z" fill="#F8FF13"/>
<path d="M375.459 427.027C375.459 427.801 376.087 428.429 376.861 428.429C377.636 428.429 378.263 427.801 378.263 427.027C378.263 426.252 377.636 425.625 376.861 425.625C376.087 425.625 375.459 426.252 375.459 427.027Z" fill="#F8FF13"/>
<path d="M375.459 436.641C375.459 437.415 376.087 438.043 376.861 438.043C377.636 438.043 378.263 437.415 378.263 436.641C378.263 435.866 377.636 435.239 376.861 435.239C376.087 435.239 375.459 435.866 375.459 436.641Z" fill="#F8FF13"/>
<path d="M375.459 446.154C375.459 446.929 376.087 447.556 376.861 447.556C377.636 447.556 378.263 446.929 378.263 446.154C378.263 445.38 377.636 444.752 376.861 444.752C376.087 444.752 375.459 445.38 375.459 446.154Z" fill="#F8FF13"/>
<path d="M375.459 455.668C375.459 456.443 376.087 457.07 376.861 457.07C377.636 457.07 378.263 456.443 378.263 455.668C378.263 454.894 377.636 454.266 376.861 454.266C376.087 454.266 375.459 454.894 375.459 455.668Z" fill="#F8FF13"/>
<path d="M375.459 465.182C375.459 465.956 376.087 466.584 376.861 466.584C377.636 466.584 378.263 465.956 378.263 465.182C378.263 464.408 377.636 463.78 376.861 463.78C376.087 463.78 375.459 464.408 375.459 465.182Z" fill="#F8FF13"/>
<path d="M375.459 474.796C375.459 475.57 376.087 476.198 376.861 476.198C377.636 476.198 378.263 475.57 378.263 474.796C378.263 474.022 377.636 473.394 376.861 473.394C376.087 473.394 375.459 474.022 375.459 474.796Z" fill="#F8FF13"/>
<path d="M375.459 484.31C375.459 485.084 376.087 485.712 376.861 485.712C377.636 485.712 378.263 485.084 378.263 484.31C378.263 483.536 377.636 482.908 376.861 482.908C376.087 482.908 375.459 483.536 375.459 484.31Z" fill="#F8FF13"/>
<path d="M521.672 789.655L521.672 767.322L339.707 767.322L339.707 789.655L521.672 789.655Z" fill="#F8FF13"/>
<path d="M521.672 747.794L521.672 725.461L339.707 725.461L339.707 747.794L521.672 747.794Z" fill="#F8FF13"/>
</svg>
