<svg width="128" height="128" viewBox="0 0 128 128" fill="none" xmlns="http://www.w3.org/2000/svg">
<path d="M82.0925 118.277H45.9075V67.6185C45.9075 65.62 47.5275 64 49.526 64H78.474C80.4725 64 82.0925 65.62 82.0925 67.6185V118.277Z" stroke="#F8FF13" stroke-width="5" stroke-linecap="round" stroke-linejoin="round"/>
<path d="M114.659 118.277H82.0925V100.788C82.0925 98.789 83.712 97.169 85.711 97.169H114.659C116.657 97.169 118.277 98.789 118.277 100.788V114.659C118.277 116.657 116.657 118.277 114.659 118.277Z" stroke="#F8FF13" stroke-width="5" stroke-linecap="round" stroke-linejoin="round"/>
<path d="M45.9075 118.277V88.726C45.9075 86.7275 44.2875 85.1075 42.289 85.1075H13.3415C11.343 85.1075 9.72299 86.7275 9.72299 88.726V114.658C9.72299 116.657 11.343 118.277 13.3415 118.277H45.9075Z" stroke="#F8FF13" stroke-width="5" stroke-linecap="round" stroke-linejoin="round"/>
<path d="M56.797 22.4675L62.2795 10.8425C62.983 9.35002 65.0165 9.35002 65.7205 10.8425L71.203 22.4675L83.464 24.3435C85.0375 24.584 85.664 26.608 84.5255 27.769L75.655 36.8115L77.7485 49.5865C78.0175 51.227 76.372 52.478 74.9645 51.703L64 45.6685L53.0355 51.703C51.628 52.478 49.9825 51.227 50.2515 49.5865L52.345 36.8115L43.4745 27.769C42.3355 26.608 42.9625 24.584 44.5355 24.3435L56.797 22.4675Z" stroke="#F8FF13" stroke-width="5" stroke-linecap="round" stroke-linejoin="round"/>
</svg>
