<svg width="214" height="185" viewBox="0 0 214 185" fill="none" xmlns="http://www.w3.org/2000/svg">
<path d="M213.475 49.2199L213.081 48.6308L199.722 34.755C198.935 33.5769 199.46 31.8751 200.904 31.4169C202.939 30.7952 204.843 29.7152 206.517 28.1444C212.096 22.8427 212.326 14.1376 207.009 8.83602C201.954 3.30533 193.224 3.1417 187.644 8.47603C186.003 10.0469 184.821 11.9123 184.132 13.9085C183.64 15.3158 181.9 15.7739 180.751 14.923L167.425 1.01451L166.835 0.589068C165.981 -0.196356 164.636 -0.196356 163.782 0.621794L148.356 15.3812C147.404 15.4467 146.452 14.923 146.157 13.9085C144.844 9.39236 141.069 5.46524 134.669 4.25438C134.013 4.12347 133.323 4.12347 132.667 4.22165C119.571 6.51247 116.19 20.0938 123.247 27.4571C124.724 29.028 126.529 30.1079 128.466 30.7624C129.516 31.1224 129.975 32.1696 129.779 33.1514L114.221 48.0417C113.335 48.8926 113.269 50.2998 114.122 51.1507L128.17 65.7465L128.433 65.9429L128.531 66.041C129.713 67.2846 131.813 66.6301 132.24 64.9284C133.52 59.9867 137.623 55.6015 144.45 54.2597C145.73 54.1615 147.01 54.2597 148.257 54.5215C151.146 55.3069 153.41 56.6814 155.117 58.3832C156.758 60.1504 158.038 62.4739 158.695 65.3865C158.892 66.6301 158.925 67.9064 158.793 69.1827C157.152 75.9243 152.557 79.786 147.535 80.8332C145.796 81.1932 145.041 83.2549 146.255 84.4658L146.354 84.5639L146.551 84.8258L160.533 99.4543C161.353 100.338 162.765 100.338 163.651 99.487L179.241 84.6949C180.259 84.5639 181.276 85.0548 181.572 86.1021C182.13 88.0656 183.147 89.8983 184.657 91.4364C191.714 98.767 205.466 96.018 208.387 83.0913C208.519 82.4368 208.552 81.7495 208.453 81.095C207.501 74.6807 203.76 70.7209 199.296 69.2155C198.278 68.8882 197.786 67.9064 197.917 66.9574L213.409 52.2307C214.164 51.4125 214.23 50.0708 213.475 49.2199Z" fill="white"/>
<path d="M142.546 184.869H142.678L143.006 184.902L163.29 185C164.504 185 165.489 183.986 165.489 182.775L165.587 161.306C166.178 160.488 167.261 160.096 168.246 160.619C170.051 161.568 172.086 162.092 174.252 162.092C184.46 162.092 192.009 150.31 184.657 139.249C184.296 138.693 183.804 138.202 183.246 137.809C177.929 134.046 172.513 134.013 168.312 136.173C167.36 136.664 166.342 136.336 165.719 135.617L165.817 114.279C165.817 113.068 164.898 112.087 163.749 112.054L163.06 111.923H143.761C142.382 111.661 141.496 110.123 142.185 108.781C143.137 106.916 143.695 104.756 143.695 102.498C143.728 94.8399 137.59 88.622 130.074 88.7529C122.558 88.5565 116.387 94.7418 116.387 102.432C116.387 104.69 116.912 106.85 117.897 108.716C118.586 110.058 117.667 111.628 116.289 111.857L96.9893 111.759L96.3 111.89C95.4794 111.923 94.7902 112.447 94.4291 113.166C94.5604 113.494 94.6261 113.854 94.6261 114.246L94.5933 136.271L93.3788 136.042C92.8209 136.271 92.1972 136.336 91.6064 136.009L91.2454 135.846C90.589 135.846 89.9325 135.911 89.2432 136.009L89.0791 136.042L88.915 136.009C88.1601 135.878 87.4709 135.747 86.8144 135.747C80.611 135.747 75.4908 140.525 74.7359 146.711C74.6702 147.234 74.6046 147.791 74.6046 148.347C74.6046 150.572 75.1954 152.929 76.4755 155.35C76.738 155.874 77.0334 156.398 77.3617 156.921C77.6571 157.379 78.0509 157.772 78.4776 158.067C81.3331 160.063 84.123 160.881 86.716 160.881C87.4052 160.881 88.0945 160.816 88.7509 160.717L88.915 160.685L89.0791 160.717C89.6371 160.816 90.0966 160.914 90.4905 160.946C90.8187 160.816 91.1797 160.652 91.508 160.488C92.1972 160.128 92.985 160.259 93.5429 160.619L94.4948 160.423L94.462 182.775C94.462 183.069 94.3963 183.331 94.3307 183.626C94.6917 184.378 95.4138 184.902 96.2672 184.902H116.551L116.847 184.869H116.978C118.717 184.869 119.669 182.938 118.717 181.433C116.026 177.08 115.698 171.124 119.472 165.266C120.293 164.284 121.245 163.434 122.295 162.714C124.855 161.176 127.415 160.488 129.844 160.456C132.273 160.488 134.833 161.208 137.393 162.746C138.444 163.466 139.395 164.35 140.216 165.332C143.958 171.19 143.564 177.179 140.872 181.498C139.888 182.906 140.807 184.869 142.546 184.869Z" fill="#F8FF13"/>
<path d="M70.7972 109.108L70.7644 109.239L70.7316 109.272L70.6003 109.73C70.6003 110.221 70.9942 110.712 71.4865 110.81L90.6218 110.777C90.8844 110.777 91.1141 110.843 91.3767 110.908C92.0331 110.941 92.6567 111.17 93.1819 111.563L93.3132 110.974L93.4117 89.5056C94.0024 88.6874 95.0856 88.2947 96.0702 88.8183C97.8755 89.7674 99.9104 90.291 102.077 90.291C112.284 90.291 119.833 78.5096 112.481 67.4482C112.12 66.8919 111.628 66.401 111.07 66.0083C105.753 62.2448 100.337 62.2121 96.1359 64.372C95.184 64.8629 94.1666 64.5356 93.5429 63.8157L93.6414 42.511C93.6414 41.3002 92.7224 40.3184 91.5736 40.2857L90.8844 40.1548H71.585C70.1736 39.9257 69.2874 38.3548 69.9767 37.0131C70.9285 35.115 71.4865 32.9878 71.4865 30.7297C71.5193 23.0391 65.3816 16.8539 57.8653 16.9848C50.3491 16.7884 44.1785 22.9736 44.1785 30.6642C44.1785 32.9223 44.7037 35.0822 45.6883 36.9804C46.3776 38.3221 45.4586 39.893 44.0801 40.122L24.7479 39.9257L24.0586 40.0566C22.9098 40.0893 21.958 41.0711 21.958 42.282L21.9252 63.5866C21.3015 64.3066 20.284 64.6338 19.3322 64.1429C15.1638 61.9503 9.71533 61.9503 4.39816 65.7138C3.84018 66.1065 3.38067 66.5974 2.98681 67.1537C-4.43098 78.1824 3.05245 89.9965 13.2601 90.0292C15.4264 90.0292 17.4613 89.5056 19.2666 88.5892C20.2512 88.0984 21.3344 88.4911 21.8923 89.3092L21.8595 110.777C21.8595 111.039 21.9252 111.301 21.9908 111.53C22.4831 111.17 23.1067 110.941 23.7632 110.908C23.9929 110.843 24.2227 110.777 24.5181 110.777L43.6534 110.81C44.1457 110.712 44.5396 110.221 44.5396 109.73L44.4411 109.272L44.4083 109.207L44.3755 109.141L44.3426 109.076C43.358 107.112 42.8 104.887 42.8 102.53V102.465V102.432C42.8 100.927 43.0954 99.5524 43.4564 98.2434C45.2288 92.1564 50.6773 87.6402 57.2417 87.6402H57.6028H57.8982C64.4626 87.6402 69.911 92.1564 71.6834 98.2434C72.0445 99.5524 72.3399 100.927 72.3399 102.432V102.465C72.3399 104.887 71.7819 107.112 70.7972 109.108Z" fill="#F8FF13"/>
<path d="M77.4273 136.926C79.9546 134.667 83.2368 133.293 86.8472 133.293C87.7334 133.293 88.4883 133.457 89.2104 133.555C89.9325 133.457 90.6546 133.391 91.3767 133.391C91.7377 133.391 92.0988 133.424 92.4598 133.457L92.4926 114.05C92.4926 113.428 92.0659 113.003 91.5408 112.937L91.4752 112.905H91.311L91.1469 112.839L90.8187 112.774L71.4209 112.807L71.3224 112.774C69.8126 112.512 68.7623 111.268 68.631 109.796L68.5653 109.501C68.5653 109.043 68.6638 108.585 68.8936 108.127L68.9264 108.029L68.9592 107.996C69.8126 106.261 70.3049 104.33 70.3049 102.269V102.236C70.3049 101.025 70.0752 99.847 69.7469 98.6689C68.2371 93.4655 63.6092 89.6693 58.0951 89.6693H57.7997H57.7669H57.4715C54.8785 89.6693 52.4825 90.5201 50.546 91.9601C48.3141 93.5636 46.6402 95.9199 45.8525 98.6689C45.6555 99.3234 45.5242 100.011 45.4258 100.698C45.3601 101.222 45.2945 101.712 45.2945 102.236V102.269C45.2945 104.33 45.7868 106.261 46.673 107.996L46.7058 108.029L46.7387 108.094L46.7715 108.159C46.9684 108.585 47.0997 109.076 47.0997 109.534L47.0341 109.796C46.9028 111.268 45.8525 112.512 44.3426 112.807L44.2442 112.839L24.8463 112.807L24.6822 112.839L24.5181 112.872L24.2883 112.905H24.1242C23.5663 112.937 23.1068 113.396 23.1068 114.017L23.1396 135.747L22.877 136.042C22.2862 136.762 21.3672 137.22 20.3825 137.22C19.8902 137.22 19.365 137.089 18.9055 136.86C17.2644 136.009 15.3936 135.518 13.4242 135.518C10.8313 135.518 7.97577 136.369 5.12024 138.398C4.69356 138.693 4.29969 139.118 4.00429 139.544C2.03497 142.456 1.21442 145.402 1.21442 148.118C1.21442 155.089 6.6957 160.685 13.3914 160.717H13.4242C15.3936 160.717 17.2644 160.226 18.9055 159.376C19.365 159.147 19.8574 159.016 20.3169 159.016C21.4 159.016 22.3518 159.572 22.9426 160.39L23.1396 160.685L23.1724 182.48C23.1724 183.135 23.6647 183.626 24.2555 183.626L44.4411 183.593L44.7693 183.56H44.8678H44.9991C45.3273 183.56 45.5242 183.429 45.7212 183.266C45.8853 183.069 46.0166 182.775 46.0166 182.48L45.8196 181.793C44.4083 179.502 43.5877 176.786 43.5877 173.906C43.5877 170.862 44.5067 167.623 46.5089 164.448L46.5417 164.383L46.5745 164.35C47.4607 163.27 48.4782 162.354 49.627 161.568L49.6598 161.536L49.6926 161.503C52.4169 159.866 55.1739 159.114 57.7997 159.081H57.8325C60.4583 159.114 63.2153 159.866 65.9396 161.503H65.9724L66.0052 161.536C67.154 162.321 68.1715 163.237 69.0577 164.317L69.0905 164.383L69.1233 164.448C71.1583 167.59 72.0445 170.862 72.0445 173.906C72.0445 176.786 71.2239 179.502 69.8126 181.793L69.6156 182.447C69.6156 182.742 69.7469 183.036 69.911 183.233C70.0752 183.429 70.3049 183.527 70.6331 183.527H70.8301H70.8957L71.1255 183.56L91.311 183.593C91.869 183.593 92.3942 183.102 92.3942 182.447L92.427 162.746C91.9675 162.812 91.508 162.845 91.0156 162.845C90.1951 162.845 89.5387 162.648 88.9807 162.55C88.2586 162.648 87.5693 162.746 86.8144 162.746C83.8604 162.746 80.7095 161.797 77.6571 159.736L77.296 159.539C76.6396 159.081 76.0816 158.492 75.6221 157.805C74.4733 156.07 73.6528 154.336 73.1604 152.569C72.9963 152.012 72.8979 151.489 72.7666 150.932C72.5696 149.951 72.4712 148.969 72.4712 147.987C72.4712 143.634 74.3748 139.642 77.4273 136.926Z" fill="#F8FF13"/>
</svg>
