<svg width="16" height="16" viewBox="0 0 16 16" fill="none" xmlns="http://www.w3.org/2000/svg">
<path d="M12.8772 0.604797C11.5021 0.604797 10.3872 1.71961 10.3872 3.0948C10.3884 3.26982 10.4079 3.44424 10.4456 3.61517L4.79204 6.44195C4.32028 5.89881 3.63666 5.58627 2.91725 5.5848C1.54206 5.5848 0.427246 6.69961 0.427246 8.0748C0.427246 9.44999 1.54206 10.5648 2.91725 10.5648C3.63689 10.564 4.32099 10.2519 4.79326 9.70886L10.4432 12.5344C10.4063 12.7054 10.3876 12.8799 10.3872 13.0548C10.3872 14.43 11.5021 15.5448 12.8772 15.5448C14.2524 15.5448 15.3672 14.43 15.3672 13.0548C15.3672 11.6796 14.2524 10.5648 12.8772 10.5648C12.1576 10.5656 11.4735 10.8777 11.0012 11.4207L5.35132 8.59517C5.38819 8.42416 5.40694 8.24974 5.40725 8.0748C5.40605 7.90018 5.38649 7.72617 5.34889 7.55564L11.0025 4.72886C11.4744 5.27154 12.158 5.58364 12.8772 5.5848C14.2524 5.5848 15.3672 4.46999 15.3672 3.0948C15.3672 1.71961 14.2524 0.604797 12.8772 0.604797Z" fill="black"/>
</svg>
