<svg width="18" height="17" viewBox="0 0 18 17" fill="none" xmlns="http://www.w3.org/2000/svg">
<path d="M9.18692 0.168147C7.53893 0.109588 5.91059 0.541029 4.50781 1.40791C3.10502 2.27479 1.9908 3.53818 1.30605 5.03831C0.62129 6.53844 0.39675 8.20794 0.660823 9.83568C0.924896 11.4634 1.66572 12.9763 2.78961 14.183C3.91351 15.3897 5.36999 16.2361 6.97489 16.615C8.57978 16.9939 10.261 16.8885 11.806 16.3119C13.3509 15.7353 14.6902 14.7136 15.6545 13.3759C16.6187 12.0382 17.1646 10.4446 17.2232 8.79658C17.2994 6.58734 16.496 4.4381 14.9894 2.82048C13.4828 1.20286 11.396 0.248979 9.18692 0.168147ZM8.64031 15.551C7.24586 15.5014 5.89742 15.0395 4.76551 14.2236C3.6336 13.4076 2.76905 12.2744 2.28119 10.9671C1.79334 9.65988 1.70409 8.23731 2.02473 6.87932C2.34537 5.52133 3.0615 4.28892 4.08256 3.33793C5.10362 2.38694 6.38375 1.76009 7.76108 1.53665C9.1384 1.3132 10.551 1.50319 11.8204 2.0826C13.0897 2.66201 14.1587 3.60482 14.8923 4.79179C15.6258 5.97876 15.9908 7.35658 15.9413 8.75103C15.8728 10.6202 15.0656 12.3859 13.6969 13.6607C12.3281 14.9354 10.5096 15.6153 8.64031 15.551ZM10.0361 12.3918C10.03 12.5618 9.95673 12.7224 9.83226 12.8383C9.70778 12.9542 9.54235 13.016 9.37236 13.0099C9.03238 12.9979 8.71113 12.8512 8.47926 12.6023C8.2474 12.3533 8.12393 12.0225 8.13601 11.6825L8.24989 8.47773C8.0799 8.47169 7.91927 8.39837 7.80334 8.27389C7.68741 8.14942 7.62567 7.98399 7.63171 7.814C7.63775 7.64401 7.71107 7.48338 7.83555 7.36745C7.96002 7.25152 8.12545 7.18979 8.29544 7.19583C8.63542 7.20791 8.95668 7.35455 9.18854 7.6035C9.4204 7.85244 9.54387 8.1833 9.53179 8.52328L9.41791 11.728C9.5879 11.7341 9.74853 11.8074 9.86446 11.9319C9.98039 12.0563 10.0421 12.2218 10.0361 12.3918ZM7.7342 4.92973C7.74096 4.73957 7.80395 4.5557 7.91521 4.40134C8.02647 4.24699 8.181 4.1291 8.35927 4.06257C8.53753 3.99605 8.73152 3.98388 8.9167 4.0276C9.10188 4.07133 9.26993 4.16898 9.39961 4.30821C9.52929 4.44745 9.61477 4.62201 9.64524 4.80983C9.67571 4.99765 9.6498 5.19028 9.57079 5.36337C9.49178 5.53646 9.36322 5.68224 9.20136 5.78227C9.0395 5.88229 8.85162 5.93207 8.66146 5.92531C8.40648 5.91625 8.16553 5.80627 7.99164 5.61956C7.81774 5.43285 7.72514 5.18471 7.7342 4.92973Z" fill="black"/>
</svg>
