<svg width="18" height="17" viewBox="0 0 18 17" fill="none" xmlns="http://www.w3.org/2000/svg">
<path d="M9.26169 0.162354C7.61267 0.162354 6.00068 0.651346 4.62956 1.5675C3.25845 2.48364 2.18979 3.7858 1.55874 5.3093C0.927685 6.8328 0.762572 8.50922 1.08428 10.1266C1.40599 11.7439 2.20007 13.2295 3.36611 14.3956C4.53214 15.5616 6.01777 16.3557 7.6351 16.6774C9.25244 16.9991 10.9289 16.834 12.4524 16.2029C13.9759 15.5719 15.278 14.5032 16.1942 13.1321C17.1103 11.761 17.5993 10.149 17.5993 8.49997C17.597 6.28941 16.7178 4.17006 15.1547 2.60696C13.5916 1.04386 11.4722 0.164688 9.26169 0.162354ZM9.26169 15.5549C7.86636 15.5549 6.50237 15.1411 5.3422 14.3659C4.18202 13.5907 3.27778 12.4889 2.74381 11.1998C2.20984 9.91065 2.07013 8.49214 2.34234 7.12363C2.61456 5.75511 3.28647 4.49804 4.27312 3.5114C5.25977 2.52475 6.51683 1.85284 7.88535 1.58062C9.25387 1.30841 10.6724 1.44812 11.9615 1.98209C13.2506 2.51606 14.3524 3.4203 15.1276 4.58047C15.9028 5.74065 16.3166 7.10464 16.3166 8.49997C16.3145 10.3704 15.5705 12.1636 14.2479 13.4862C12.9253 14.8088 11.1321 15.5528 9.26169 15.5549ZM9.26169 4.01048C8.62755 4.01062 8.00769 4.19877 7.48046 4.55114C6.95324 4.90352 6.54232 5.4043 6.29966 5.99017C6.05701 6.57605 5.9935 7.22072 6.11718 7.84268C6.24086 8.46465 6.54616 9.03598 6.9945 9.48445L6.12386 11.6715C6.06576 11.8174 6.04425 11.9753 6.06122 12.1314C6.07819 12.2875 6.13312 12.4371 6.22121 12.5671C6.3093 12.6971 6.42788 12.8035 6.56658 12.8772C6.70529 12.9508 6.85991 12.9893 7.01695 12.9895H11.5064C11.6635 12.9893 11.8181 12.9508 11.9568 12.8772C12.0955 12.8035 12.2141 12.6971 12.3022 12.5671C12.3903 12.4371 12.4452 12.2875 12.4622 12.1314C12.4791 11.9753 12.4576 11.8174 12.3995 11.6715L11.5289 9.48445C11.9772 9.03598 12.2825 8.46465 12.4062 7.84268C12.5299 7.22072 12.4664 6.57605 12.2237 5.99017C11.9811 5.4043 11.5701 4.90352 11.0429 4.55114C10.5157 4.19877 9.89583 4.01062 9.26169 4.01048ZM10.1684 9.53415L11.0334 11.7067H7.48995L8.35498 9.53415C8.4078 9.40155 8.41487 9.25512 8.37509 9.11804C8.3353 8.98096 8.25092 8.86107 8.13531 8.77736C7.8055 8.53921 7.55966 8.20265 7.43311 7.81604C7.30655 7.42942 7.30579 7.01264 7.43093 6.62556C7.55607 6.23848 7.80068 5.90103 8.12962 5.66168C8.45855 5.42233 8.85489 5.29339 9.26169 5.29339C9.6685 5.29339 10.0648 5.42233 10.3938 5.66168C10.7227 5.90103 10.9673 6.23848 11.0925 6.62556C11.2176 7.01264 11.2168 7.42942 11.0903 7.81604C10.9637 8.20265 10.7179 8.53921 10.3881 8.77736C10.2725 8.86107 10.1881 8.98096 10.1483 9.11804C10.1085 9.25512 10.1156 9.40155 10.1684 9.53415Z" fill="black"/>
</svg>
